<?xml version="1.0" encoding="utf-8"?>
<!-- Generator: Adobe Illustrator 22.0.1, SVG Export Plug-In . SVG Version: 6.00 Build 0)  -->
<svg version="1.1" id="Layer_1" xmlns="http://www.w3.org/2000/svg" xmlns:xlink="http://www.w3.org/1999/xlink" x="0px" y="0px"
	 viewBox="0 0 821.9 105.9" style="enable-background:new 0 0 821.9 105.9;" xml:space="preserve">
<style type="text/css">
	.st0{fill-rule:evenodd;clip-rule:evenodd;}
	.st1{fill-rule:evenodd;clip-rule:evenodd;fill:#FFCC00;}
	
		.st2{fill-rule:evenodd;clip-rule:evenodd;fill:none;stroke:#C54437;stroke-width:8.65;stroke-linecap:round;stroke-linejoin:round;stroke-miterlimit:3;}
	
		.st3{fill-rule:evenodd;clip-rule:evenodd;fill:none;stroke:#666666;stroke-width:4;stroke-linecap:round;stroke-linejoin:round;stroke-miterlimit:3;}
	.st4{fill-rule:evenodd;clip-rule:evenodd;fill:#CCCCCC;}
	.st5{fill-rule:evenodd;clip-rule:evenodd;fill:#DD896E;}
	.st6{fill-rule:evenodd;clip-rule:evenodd;fill:#7AE5FE;}
	.st7{fill-rule:evenodd;clip-rule:evenodd;fill:#2A629A;}
	.st8{fill-rule:evenodd;clip-rule:evenodd;fill:#FF9900;}
	.st9{fill-rule:evenodd;clip-rule:evenodd;fill:#CC0000;}
	.st10{fill-rule:evenodd;clip-rule:evenodd;fill:#644300;}
	.st11{fill-rule:evenodd;clip-rule:evenodd;fill:#FFCC66;}
	.st12{fill-rule:evenodd;clip-rule:evenodd;fill:#FFFF66;}
	.st13{fill-rule:evenodd;clip-rule:evenodd;fill:#333333;}
	.st14{clip-path:url(#SVGID_4_);fill-rule:evenodd;clip-rule:evenodd;fill:#00B000;}
	.st15{clip-path:url(#SVGID_4_);}
	
		.st16{fill-rule:evenodd;clip-rule:evenodd;fill:url(#SVGID_5_);stroke:url(#SVGID_6_);stroke-linecap:round;stroke-linejoin:round;stroke-miterlimit:3;}
	
		.st17{fill-rule:evenodd;clip-rule:evenodd;fill:url(#SVGID_7_);stroke:url(#SVGID_8_);stroke-linecap:round;stroke-linejoin:round;stroke-miterlimit:3;}
	
		.st18{fill-rule:evenodd;clip-rule:evenodd;fill:url(#SVGID_9_);stroke:url(#SVGID_10_);stroke-linecap:round;stroke-linejoin:round;stroke-miterlimit:3;}
	.st19{fill-rule:evenodd;clip-rule:evenodd;fill:#FFFFFF;}
	.st20{fill-rule:evenodd;clip-rule:evenodd;fill:#660000;}
	
		.st21{fill-rule:evenodd;clip-rule:evenodd;fill:none;stroke:#2ECC99;stroke-width:5;stroke-linecap:round;stroke-linejoin:round;stroke-miterlimit:3;}
	.st22{fill-rule:evenodd;clip-rule:evenodd;fill:#00CC99;}
	.st23{fill-rule:evenodd;clip-rule:evenodd;fill-opacity:0.2;}
	.st24{fill-rule:evenodd;clip-rule:evenodd;fill:#FF3333;}
	.st25{fill-rule:evenodd;clip-rule:evenodd;fill:#BF7828;}
	.st26{fill-rule:evenodd;clip-rule:evenodd;fill:#8E591D;}
	.st27{fill-rule:evenodd;clip-rule:evenodd;fill:#008C15;}
	.st28{fill-rule:evenodd;clip-rule:evenodd;fill:#00620E;}
	.st29{fill-rule:evenodd;clip-rule:evenodd;fill:#00B000;}
	.st30{fill:#4AC2E5;}
	.st31{fill-rule:evenodd;clip-rule:evenodd;fill:#CCCCCC;fill-opacity:0.6;}
	.st32{fill-rule:evenodd;clip-rule:evenodd;fill:#23645B;}
	.st33{fill-rule:evenodd;clip-rule:evenodd;fill:#403D5B;}
	.st34{fill-rule:evenodd;clip-rule:evenodd;fill:#1E1C30;}
	.st35{fill:#FFFFFF;}
	.st36{fill-rule:evenodd;clip-rule:evenodd;fill:#292020;}
	.st37{fill-rule:evenodd;clip-rule:evenodd;fill:#C64F27;}
	.st38{fill-rule:evenodd;clip-rule:evenodd;fill:#8E8E8E;}
	.st39{opacity:0.35;fill-rule:evenodd;clip-rule:evenodd;}
	.st40{fill:none;stroke:#999999;stroke-width:69;stroke-miterlimit:10;}
	.st41{fill:none;stroke:#000000;stroke-width:37.5978;stroke-miterlimit:10;}
	.st42{fill:none;stroke:#FFFFFF;stroke-width:1.8187;stroke-miterlimit:10;}
	.st43{fill:none;stroke:#FFFFFF;stroke-width:1.8187;stroke-miterlimit:10;stroke-dasharray:10.9322,7.2881;}
	.st44{fill-rule:evenodd;clip-rule:evenodd;fill:#AAAAAA;}
	.st45{fill:none;stroke:#555555;stroke-width:0.4711;stroke-miterlimit:10;}
	.st46{fill:none;stroke:#EEEEEE;stroke-width:0.4711;stroke-miterlimit:10;}
	.st47{opacity:0.8;}
	.st48{opacity:0.3;fill:#333333;}
	.st49{fill:#BBBBBB;}
	
		.st50{opacity:0.3;fill:#999999;stroke:#000000;stroke-width:0.4895;stroke-linecap:round;stroke-linejoin:round;stroke-miterlimit:10;}
	.st51{fill:#CCCCCC;}
	.st52{opacity:0.5;}
	.st53{clip-path:url(#SVGID_12_);}
	
		.st54{opacity:0.6;fill:none;stroke:#000000;stroke-width:0.4895;stroke-linecap:round;stroke-linejoin:round;stroke-miterlimit:10;}
	.st55{fill:none;stroke:#AAAAAA;stroke-width:2.5558;stroke-linecap:round;stroke-linejoin:round;stroke-miterlimit:10;}
	.st56{fill:#7DB6B6;}
	.st57{fill:none;stroke:#6D8080;stroke-width:0.8903;stroke-miterlimit:10;}
	.st58{fill-rule:evenodd;clip-rule:evenodd;fill:#FF9933;}
	.st59{fill-rule:evenodd;clip-rule:evenodd;fill:#DB832B;}
	.st60{fill-rule:evenodd;clip-rule:evenodd;fill:#FF6633;}
	.st61{fill-rule:evenodd;clip-rule:evenodd;fill:#660044;}
	.st62{fill-rule:evenodd;clip-rule:evenodd;fill:#E20019;}
	.st63{fill-rule:evenodd;clip-rule:evenodd;fill:#A80012;}
	.st64{fill-rule:evenodd;clip-rule:evenodd;fill:#464646;}
	.st65{fill-rule:evenodd;clip-rule:evenodd;fill:#121212;}
	.st66{fill-rule:evenodd;clip-rule:evenodd;fill:#252525;}
	
		.st67{fill-rule:evenodd;clip-rule:evenodd;fill:none;stroke:#000000;stroke-width:2.0848;stroke-linecap:square;stroke-linejoin:round;stroke-miterlimit:3;}
	.st68{fill:#6B4C8C;}
	.st69{fill:#F6F8F8;}
	.st70{fill:#EFF2F3;}
	.st71{fill:#FEFEFD;}
	.st72{fill:#E4E9EB;}
	.st73{fill:#EAEEEF;}
	.st74{fill:#E8EDEE;}
	.st75{fill:#E5EAEC;}
	.st76{fill:#EAEEF0;}
	.st77{fill:#E4E9EA;}
	.st78{fill:#888888;}
	.st79{fill:#AAAAAA;}
	.st80{fill:none;stroke:#999999;stroke-width:0.5421;stroke-miterlimit:10;}
	.st81{fill:#EEEEEE;}
	.st82{fill:none;stroke:#555555;stroke-width:1.6263;stroke-linecap:round;stroke-miterlimit:10;}
	.st83{fill:#333333;}
	.st84{fill-rule:evenodd;clip-rule:evenodd;fill:#102031;}
	.st85{fill-rule:evenodd;clip-rule:evenodd;fill:#FF6600;}
	.st86{fill-rule:evenodd;clip-rule:evenodd;fill:#ECFF43;}
	.st87{fill-rule:evenodd;clip-rule:evenodd;fill:#D9AE00;}
	.st88{fill-rule:evenodd;clip-rule:evenodd;fill:#CC0099;}
	.st89{fill:#546E7A;}
	.st90{fill:#D6E2AC;}
	.st91{fill:#444444;}
	.st92{fill:none;stroke:#444444;stroke-width:0.9278;stroke-miterlimit:10;}
	.st93{fill:#444444;stroke:#444444;stroke-width:0.9278;stroke-miterlimit:10;}
	.st94{fill:#B3E5FC;}
	.st95{fill-rule:evenodd;clip-rule:evenodd;fill:#F69020;}
	
		.st96{fill-rule:evenodd;clip-rule:evenodd;fill:none;stroke:#FFFFFF;stroke-width:1.4607;stroke-linecap:square;stroke-linejoin:round;stroke-miterlimit:3;}
	.st97{stroke:#000000;stroke-width:1.8403;stroke-miterlimit:10;}
	.st98{stroke:#545454;stroke-width:1.8403;stroke-miterlimit:10;}
	.st99{clip-path:url(#SVGID_14_);fill:url(#SVGID_15_);}
	.st100{clip-path:url(#SVGID_14_);}
	.st101{fill:#5FCCED;}
	.st102{fill:#3A2467;}
	.st103{fill:#442E6E;}
	.st104{fill:#AC8FC2;}
	.st105{fill:#37BCE9;}
	.st106{fill:#7BD3EC;}
	.st107{fill:#2783AF;}
	.st108{fill:#101942;}
	.st109{fill:#715790;}
	.st110{fill:#1E5782;}
	.st111{fill:#247DA9;}
	.st112{fill:#48C7EF;}
	.st113{fill:#3E2769;}
	.st114{fill:#4D2D79;}
	.st115{fill:#644883;}
	.st116{fill:#2DA1CE;}
	.st117{fill:#563C79;}
	.st118{fill:#B69FCA;}
	.st119{fill:#142B55;}
	.st120{fill:#693B94;}
	.st121{fill:#206794;}
	.st122{fill:#153862;}
	.st123{fill:#184873;}
	.st124{fill:#8B6A9F;}
	.st125{fill:#DFDBE6;}
	.st126{fill:#C8C1D5;}
	.st127{fill:#D4CEDD;}
	.st128{fill:#9870B1;}
	.st129{fill:#E1E1E1;}
	.st130{fill:#E0DFE0;}
	.st131{fill:#242021;}
	.st132{fill:#252122;}
	.st133{fill:#2B2629;}
	.st134{fill:#403C3D;}
	.st135{fill:#161213;}
	.st136{fill:#DFDDDF;}
	.st137{fill:#DEDEDE;}
	.st138{fill:#78D0EE;}
	.st139{fill:#382265;}
	.st140{fill:#61427C;}
	.st141{fill:#111A42;}
	.st142{fill:#36B9E5;}
	.st143{fill:#63368F;}
	.st144{fill:#2F7499;}
	.st145{fill:#214A6C;}
	.st146{fill:#57C8F0;}
	.st147{fill:#3399C1;}
	.st148{fill:#4B2A77;}
	.st149{fill:#7B598E;}
	.st150{fill:#B499C7;}
	.st151{fill:#152C50;}
	.st152{fill:#988BAE;}
	.st153{fill:#DDDADE;}
	.st154{fill:#CDC7D8;}
	.st155{fill-rule:evenodd;clip-rule:evenodd;fill:#3B665B;}
	.st156{fill-rule:evenodd;clip-rule:evenodd;fill:#7D8B8D;}
	.st157{opacity:0.3;fill-rule:evenodd;clip-rule:evenodd;fill:#333333;}
	.st158{clip-path:url(#SVGID_17_);}
	.st159{fill:#00536D;}
	.st160{fill:#00A6D4;}
	.st161{fill:#00B4E7;}
	.st162{fill:#00B0E0;}
	.st163{fill:#00A7D5;}
	.st164{fill:#00AFDF;}
	.st165{fill:#00A5D1;}
	.st166{fill:#00ABDA;}
	.st167{fill:#00A1CE;}
	.st168{fill:#00A1CD;}
	.st169{fill:#009AC5;}
	.st170{fill:#009EC9;}
	.st171{fill:#00B7EC;}
	.st172{fill:#000D11;}
	.st173{fill:#000B0E;}
	.st174{fill:#000709;}
	.st175{fill:#000202;}
	.st176{fill:none;stroke:#837400;stroke-width:2.2272;stroke-miterlimit:10;}
	.st177{fill:#222222;}
	.st178{fill:#333333;stroke:#666666;stroke-width:0.3738;stroke-miterlimit:10;}
	.st179{opacity:0.35;}
	.st180{fill:#4F3114;}
	.st181{fill:#E72700;}
	.st182{fill:none;stroke:#972700;stroke-width:0.7127;stroke-miterlimit:10;}
	.st183{fill:#DDDDDD;}
	.st184{fill:#6B6B6B;}
	.st185{fill:none;stroke:#6B6B6B;stroke-width:0.3073;stroke-linejoin:round;stroke-miterlimit:10;}
	.st186{stroke:#6B6B6B;stroke-width:0.377;stroke-miterlimit:10;}
	.st187{fill:#999999;stroke:#6B6B6B;stroke-width:0.3073;stroke-linejoin:round;stroke-miterlimit:10;}
	.st188{fill:#999999;stroke:#6B6B6B;stroke-width:0.3073;stroke-miterlimit:10;}
	.st189{fill:#423D3A;}
	.st190{fill:none;stroke:#6B6B6B;stroke-width:0.3073;stroke-linecap:round;stroke-linejoin:round;stroke-miterlimit:10;}
	.st191{fill:#444444;stroke:#6B6B6B;stroke-width:0.3073;stroke-linecap:round;stroke-linejoin:round;stroke-miterlimit:10;}
	.st192{fill:#E5E8CC;}
	.st193{fill:#F5CC8B;}
	.st194{fill:#EB9309;}
	.st195{fill:#FDDF33;}
	.st196{fill:#F5A223;}
	.st197{fill:#FDD930;}
	.st198{fill:#E8A626;}
	.st199{fill:#FCD530;}
	.st200{fill:#FDDA30;}
	.st201{fill:#FAC92D;}
	.st202{fill:#F8B628;}
	.st203{fill:#FAC82D;}
	.st204{fill:#F9BE2A;}
	.st205{fill:#F7B426;}
	.st206{fill:#F9BF2A;}
	.st207{fill:#FBD02F;}
	.st208{fill:#F7C723;}
	.st209{fill:#F6C020;}
	.st210{fill:#F4BA1C;}
	.st211{fill:#F5BF1E;}
	.st212{fill:#2A2A24;}
	.st213{fill:#2A2924;}
	.st214{fill:#FBD22F;}
	.st215{fill-rule:evenodd;clip-rule:evenodd;fill:#CC2707;}
	
		.st216{fill-rule:evenodd;clip-rule:evenodd;fill:none;stroke:#CC2707;stroke-width:2.0029;stroke-linecap:round;stroke-linejoin:round;stroke-miterlimit:3;}
	.st217{fill-rule:evenodd;clip-rule:evenodd;fill:#F39C12;}
	.st218{fill-rule:evenodd;clip-rule:evenodd;fill:#222222;}
	.st219{fill-rule:evenodd;clip-rule:evenodd;fill:#FF9966;}
	
		.st220{fill-rule:evenodd;clip-rule:evenodd;fill:none;stroke:#333333;stroke-width:1.1657;stroke-linecap:round;stroke-linejoin:round;stroke-miterlimit:3;}
	.st221{fill-rule:evenodd;clip-rule:evenodd;fill:#663300;}
	
		.st222{fill-rule:evenodd;clip-rule:evenodd;fill:#FF9966;stroke:#FFFFFF;stroke-width:0.391;stroke-linecap:round;stroke-miterlimit:10;}
	.st223{fill-rule:evenodd;clip-rule:evenodd;fill:#7C7279;}
	.st224{fill-rule:evenodd;clip-rule:evenodd;fill:#100010;}
	.st225{fill-rule:evenodd;clip-rule:evenodd;fill:#040004;}
	.st226{fill-rule:evenodd;clip-rule:evenodd;fill:#6D0000;}
	.st227{opacity:0.3;}
	.st228{fill:#777777;}
	.st229{fill:none;stroke:#777777;stroke-width:0.2317;stroke-miterlimit:10;}
	.st230{fill:#CCCCCC;stroke:#777777;stroke-width:0.1861;stroke-miterlimit:10;}
	.st231{fill:none;stroke:#777777;stroke-width:0.2053;stroke-miterlimit:10;}
	.st232{fill:#CCCCCC;stroke:#777777;stroke-width:0.1458;stroke-miterlimit:10;}
	.st233{fill:none;stroke:#777777;stroke-width:0.1861;stroke-miterlimit:10;}
	.st234{fill:#CCCCCC;stroke:#777777;stroke-width:0.2317;stroke-miterlimit:10;}
	.st235{fill:#CCCCCC;stroke:#777777;stroke-width:0.1005;stroke-miterlimit:10;}
	.st236{fill:#CCCCCC;stroke:#777777;stroke-width:0.2015;stroke-miterlimit:10;}
	.st237{fill:#CCCCCC;stroke:#777777;stroke-width:0.2507;stroke-miterlimit:10;}
	.st238{fill:#CCCCCC;stroke:#777777;stroke-width:0.2046;stroke-miterlimit:10;}
	.st239{fill:none;stroke:#777777;stroke-width:0.2507;stroke-miterlimit:10;}
	.st240{fill:none;stroke:#777777;stroke-width:0.3605;stroke-miterlimit:10;}
	.st241{fill:#ECF0F1;stroke:#777777;stroke-width:0.2783;stroke-miterlimit:10;}
	.st242{fill:#FDE50E;}
	.st243{fill:#F16765;}
	.st244{fill:#E27154;}
	.st245{fill:#664E25;}
	.st246{fill:#664F25;}
	.st247{fill:#5E4612;}
	.st248{fill:#6A5119;}
	.st249{fill:#634B15;}
	.st250{fill:#684F16;}
	.st251{fill:#674F17;}
	.st252{fill:#F6E179;}
	.st253{fill:#654C14;}
	.st254{fill:#F1DB7B;}
	.st255{fill:#EFD977;}
	.st256{fill:#5F4511;}
	.st257{fill:#6D5415;}
	.st258{fill:#644B11;}
	.st259{fill:#6A5217;}
	.st260{fill:#6B5115;}
	.st261{fill-rule:evenodd;clip-rule:evenodd;fill:#E6E7E8;}
	
		.st262{fill-rule:evenodd;clip-rule:evenodd;fill:#E6E7E8;stroke:#E6E7E8;stroke-width:1.8938;stroke-linecap:round;stroke-miterlimit:10;}
	.st263{fill-rule:evenodd;clip-rule:evenodd;fill:#3B0000;}
	.st264{fill-rule:evenodd;clip-rule:evenodd;fill:#C4AE54;}
	.st265{fill:#363636;}
	.st266{fill-rule:evenodd;clip-rule:evenodd;fill:#E8DBCC;}
	
		.st267{fill-rule:evenodd;clip-rule:evenodd;fill:none;stroke:#8B52CF;stroke-width:2.3847;stroke-linecap:round;stroke-linejoin:round;stroke-miterlimit:3;}
	.st268{fill-rule:evenodd;clip-rule:evenodd;fill:#8B52CF;}
	.st269{fill:#182256;}
	.st270{stroke:#444444;stroke-width:0.269;stroke-miterlimit:10;}
	.st271{fill:#EDEDED;}
	.st272{fill:#D1D1D1;}
	.st273{fill:#454545;}
	.st274{fill:#4184F5;}
	.st275{fill:#FABD03;}
	.st276{fill:#34A853;}
	.st277{fill:#E94335;}
	.st278{fill-rule:evenodd;clip-rule:evenodd;fill:#996939;}
	
		.st279{fill-rule:evenodd;clip-rule:evenodd;fill:none;stroke:#F1C40F;stroke-width:2.147;stroke-linecap:round;stroke-linejoin:round;stroke-miterlimit:3;}
	.st280{fill-rule:evenodd;clip-rule:evenodd;fill:#F1C40F;}
	.st281{fill-rule:evenodd;clip-rule:evenodd;fill:#646C6C;}
	.st282{fill-rule:evenodd;clip-rule:evenodd;fill:#953679;}
	.st283{fill-rule:evenodd;clip-rule:evenodd;fill:#335166;}
	.st284{fill-rule:evenodd;clip-rule:evenodd;fill:#996600;}
	
		.st285{fill-rule:evenodd;clip-rule:evenodd;fill:none;stroke:#953679;stroke-width:2.1079;stroke-linecap:round;stroke-linejoin:round;stroke-miterlimit:3;}
	.st286{fill:#9FBDE6;stroke:#4F4F4F;stroke-width:9.0764;stroke-miterlimit:10;}
	.st287{fill:none;stroke:#828282;stroke-width:6.3534;stroke-linecap:square;stroke-miterlimit:10;}
	.st288{fill:#9FBDE6;stroke:#4F4F4F;stroke-width:1.686;stroke-miterlimit:10;}
	.st289{fill:#9FBDE6;stroke:#4F4F4F;stroke-width:1.4855;stroke-miterlimit:10;}
	.st290{fill:#ECF0F1;stroke:#4F4F4F;stroke-width:1.4855;stroke-miterlimit:10;}
	.st291{fill:#4F4F4F;}
	.st292{fill-rule:evenodd;clip-rule:evenodd;fill:#B0B0B0;}
	.st293{fill-rule:evenodd;clip-rule:evenodd;fill:#F2F2F2;}
	.st294{fill-rule:evenodd;clip-rule:evenodd;fill:#8F8F8F;}
	.st295{fill-rule:evenodd;clip-rule:evenodd;fill:#DEDEDE;}
	.st296{fill-rule:evenodd;clip-rule:evenodd;fill:#EAE7B6;stroke:#888888;stroke-width:8.004840e-02;stroke-miterlimit:10;}
	.st297{fill-rule:evenodd;clip-rule:evenodd;fill:#6A9A9A;}
	.st298{fill-rule:evenodd;clip-rule:evenodd;fill:#7DB6B6;}
	.st299{fill-rule:evenodd;clip-rule:evenodd;fill:#73001B;}
	.st300{fill-rule:evenodd;clip-rule:evenodd;fill:#2C4854;}
	.st301{fill-rule:evenodd;clip-rule:evenodd;fill:#63A2BD;}
	.st302{clip-path:url(#SVGID_21_);}
	.st303{fill:#DEB25F;}
	.st304{fill:#C3844D;}
	.st305{fill:#682A18;}
	.st306{fill:none;stroke:#682A18;stroke-width:2.9297;stroke-miterlimit:10;}
	.st307{fill:#453803;stroke:#DEB25F;stroke-width:1.5625;stroke-linecap:round;stroke-miterlimit:10;}
	.st308{fill:#453803;stroke:#DEB25F;stroke-width:1.9532;stroke-linecap:round;stroke-miterlimit:10;}
	.st309{fill:none;stroke:#DEB25F;stroke-width:1.5625;stroke-linecap:round;stroke-miterlimit:10;}
	.st310{fill:none;stroke:#DEB25F;stroke-width:1.7383;stroke-miterlimit:10;}
	.st311{fill:none;stroke:#682A18;stroke-width:4.619;stroke-miterlimit:10;}
	.st312{fill:#453803;stroke:#DEB25F;stroke-width:3.0794;stroke-linecap:round;stroke-miterlimit:10;}
	.st313{fill:#453803;stroke:#DEB25F;stroke-width:2.4635;stroke-linecap:round;stroke-miterlimit:10;}
	.st314{fill:none;stroke:#DEB25F;stroke-width:2.4635;stroke-linecap:round;stroke-miterlimit:10;}
	.st315{fill:none;stroke:#DEB25F;stroke-width:2.7406;stroke-miterlimit:10;}
	.st316{fill:none;stroke:#682A18;stroke-width:0.3961;stroke-miterlimit:10;}
	.st317{fill:#6F7A5F;}
	.st318{fill:none;stroke:#DEB25F;stroke-width:0.689;stroke-miterlimit:10;}
	.st319{fill-rule:evenodd;clip-rule:evenodd;fill:#00A651;}
	
		.st320{fill-rule:evenodd;clip-rule:evenodd;fill:none;stroke:#0081C9;stroke-width:7.372293e-02;stroke-linecap:square;stroke-linejoin:round;stroke-miterlimit:3;}
	.st321{fill:#4D5349;}
	.st322{fill:#E64355;}
	.st323{fill:#DBDDD9;}
	.st324{fill:#D8DAD6;}
	.st325{fill:#D7D9D5;}
	.st326{fill:#D9DBD7;}
	.st327{fill:#D7DAD5;}
	.st328{fill:#D8DBD6;}
	.st329{fill:#B1B3AD;}
	.st330{fill:#E4E6E2;}
	.st331{fill:#E8E9E5;}
	.st332{fill:#3E443A;}
	.st333{fill:#565C52;}
	.st334{fill:#636860;}
	.st335{fill-rule:evenodd;clip-rule:evenodd;fill:#474747;}
	
		.st336{fill-rule:evenodd;clip-rule:evenodd;fill:none;stroke:#474747;stroke-width:0.7025;stroke-linecap:round;stroke-linejoin:round;stroke-miterlimit:3;}
	
		.st337{fill-rule:evenodd;clip-rule:evenodd;fill:none;stroke:#474747;stroke-width:1.4977;stroke-linecap:round;stroke-linejoin:round;stroke-miterlimit:3;}
	.st338{fill-rule:evenodd;clip-rule:evenodd;fill:#9F1847;}
	.st339{fill:#54431D;}
	.st340{fill-rule:evenodd;clip-rule:evenodd;fill:#220000;}
	.st341{fill-rule:evenodd;clip-rule:evenodd;fill:#CC9966;}
	.st342{fill-rule:evenodd;clip-rule:evenodd;fill:none;}
	.st343{fill-rule:evenodd;clip-rule:evenodd;fill:#1A1A1A;}
	.st344{fill:#FFE600;stroke:#5E5A37;stroke-width:1.9864;stroke-miterlimit:10;}
	.st345{fill:#777777;stroke:#111111;stroke-width:1.83;stroke-miterlimit:10;}
	.st346{fill:#FFE600;}
	.st347{fill:#BAA900;}
	.st348{fill:#5E5A37;}
	
		.st349{fill-rule:evenodd;clip-rule:evenodd;fill:none;stroke:#FFFFFF;stroke-width:1.2319;stroke-linecap:round;stroke-linejoin:round;stroke-miterlimit:3;}
	
		.st350{fill-rule:evenodd;clip-rule:evenodd;fill:url(#SVGID_22_);stroke:url(#SVGID_23_);stroke-linecap:round;stroke-linejoin:round;stroke-miterlimit:3;}
	
		.st351{fill-rule:evenodd;clip-rule:evenodd;fill:url(#SVGID_24_);stroke:url(#SVGID_25_);stroke-linecap:round;stroke-linejoin:round;stroke-miterlimit:3;}
	.st352{fill:#1F3975;}
	.st353{fill:#FAFBFC;}
	.st354{fill:#379AD6;}
	.st355{fill:#233D77;}
	.st356{fill:#213B76;}
	.st357{fill:none;stroke:#8B7C00;stroke-width:0.9369;stroke-miterlimit:10;}
	
		.st358{fill-rule:evenodd;clip-rule:evenodd;fill:url(#SVGID_26_);stroke:url(#SVGID_27_);stroke-linecap:round;stroke-linejoin:round;stroke-miterlimit:3;}
	.st359{fill-rule:evenodd;clip-rule:evenodd;fill:#66602C;}
	.st360{fill-rule:evenodd;clip-rule:evenodd;fill:#3D3A16;}
	
		.st361{fill-rule:evenodd;clip-rule:evenodd;fill:none;stroke:#000000;stroke-width:3;stroke-linecap:square;stroke-linejoin:round;stroke-miterlimit:3;}
	.st362{fill-rule:evenodd;clip-rule:evenodd;fill:#2238B5;}
	.st363{fill-rule:evenodd;clip-rule:evenodd;fill:#FFCC99;}
	
		.st364{fill-rule:evenodd;clip-rule:evenodd;fill:none;stroke:#FF60A1;stroke-width:1.6113;stroke-linecap:round;stroke-linejoin:round;stroke-miterlimit:3;}
	.st365{fill-rule:evenodd;clip-rule:evenodd;fill:#FF60A1;}
	
		.st366{fill-rule:evenodd;clip-rule:evenodd;fill:none;stroke:#FFCC99;stroke-width:1.6113;stroke-linecap:round;stroke-linejoin:round;stroke-miterlimit:3;}
	.st367{fill-rule:evenodd;clip-rule:evenodd;fill:#68666F;}
	.st368{fill-rule:evenodd;clip-rule:evenodd;fill:#6B3300;}
	.st369{fill-rule:evenodd;clip-rule:evenodd;fill:#E25636;}
	.st370{fill-rule:evenodd;clip-rule:evenodd;fill:#330000;}
	.st371{fill:none;stroke:#895E20;stroke-width:2.5436;stroke-miterlimit:10;}
	.st372{fill:#444444;stroke:#BF8F45;stroke-width:1.2718;stroke-miterlimit:10;}
	.st373{fill:#133174;}
	.st374{fill:#3194D9;}
	.st375{fill:#FAFAFB;}
	.st376{fill:#F7F8FA;}
	.st377{fill:#FAFAFC;}
	.st378{fill:#3195DA;}
	.st379{fill:#3195D9;}
	.st380{fill:#F6F7F9;}
	.st381{fill:#F8F8FA;}
	.st382{fill:#032369;}
	.st383{fill:#02226A;}
	.st384{fill:#03236A;}
	.st385{fill:#153375;}
	.st386{fill:#183576;}
	.st387{fill:#163375;}
	.st388{fill:#133275;}
	
		.st389{fill-rule:evenodd;clip-rule:evenodd;fill:none;stroke:#E8E8E8;stroke-width:2.1235;stroke-linecap:round;stroke-linejoin:round;stroke-miterlimit:3;}
	.st390{fill-rule:evenodd;clip-rule:evenodd;fill:#BFBFBF;}
	.st391{fill-rule:evenodd;clip-rule:evenodd;fill:#E8E8E8;}
	.st392{fill-rule:evenodd;clip-rule:evenodd;fill:#1D5490;}
	
		.st393{fill-rule:evenodd;clip-rule:evenodd;fill:none;stroke:#DDDDDD;stroke-width:1.8529;stroke-linecap:round;stroke-linejoin:round;stroke-miterlimit:3;}
	.st394{fill-rule:evenodd;clip-rule:evenodd;fill:#DDDDDD;}
	.st395{fill:#FF9966;}
	.st396{fill:#2B388F;}
	.st397{fill:none;stroke:#666666;stroke-width:1.3495;stroke-linejoin:round;stroke-miterlimit:10;}
	.st398{fill-rule:evenodd;clip-rule:evenodd;fill:#6177B3;}
	.st399{fill-rule:evenodd;clip-rule:evenodd;fill:#B3832E;}
	
		.st400{fill-rule:evenodd;clip-rule:evenodd;fill:none;stroke:#B3832E;stroke-width:2.1222;stroke-linecap:round;stroke-linejoin:round;stroke-miterlimit:3;}
	
		.st401{fill-rule:evenodd;clip-rule:evenodd;fill:none;stroke:#000000;stroke-width:1.7994;stroke-linejoin:round;stroke-miterlimit:10;}
	.st402{fill-rule:evenodd;clip-rule:evenodd;stroke:#929497;stroke-width:0.4014;stroke-miterlimit:10;}
	
		.st403{fill-rule:evenodd;clip-rule:evenodd;fill:none;stroke:#666666;stroke-width:1.3495;stroke-linejoin:round;stroke-miterlimit:10;}
	.st404{stroke:#000000;stroke-width:0.8337;stroke-linecap:round;stroke-linejoin:round;stroke-miterlimit:10;}
	.st405{fill:#FEFCFC;}
	.st406{fill:#FEF9FA;}
	.st407{fill:#FEF9F9;}
	.st408{clip-path:url(#SVGID_31_);}
	.st409{fill-rule:evenodd;clip-rule:evenodd;fill:#999999;}
	.st410{fill-rule:evenodd;clip-rule:evenodd;fill:#1F1F1F;}
	.st411{fill-rule:evenodd;clip-rule:evenodd;fill:#EEEEEE;}
	.st412{fill-rule:evenodd;clip-rule:evenodd;fill:#006699;}
	.st413{fill-rule:evenodd;clip-rule:evenodd;fill:#501C64;}
	.st414{fill-rule:evenodd;clip-rule:evenodd;fill:#004669;}
	.st415{fill-rule:evenodd;clip-rule:evenodd;fill:#00283C;}
	
		.st416{fill-rule:evenodd;clip-rule:evenodd;fill:none;stroke:#FFFFFF;stroke-width:0.9648;stroke-linejoin:round;stroke-miterlimit:3;}
	.st417{fill-rule:evenodd;clip-rule:evenodd;fill:#0099CC;}
	.st418{opacity:0.3;fill-rule:evenodd;clip-rule:evenodd;}
	.st419{fill-rule:evenodd;clip-rule:evenodd;fill:#0F0F0F;}
	.st420{fill-rule:evenodd;clip-rule:evenodd;fill:#001F51;}
	.st421{fill-rule:evenodd;clip-rule:evenodd;fill:#C4BB00;}
	.st422{fill:none;stroke:#CCCCCC;stroke-width:1.4387;stroke-linecap:round;stroke-miterlimit:10;}
	.st423{fill:none;stroke:#000000;stroke-width:0.4316;stroke-linecap:round;stroke-miterlimit:10;}
	.st424{fill:#FF1800;stroke:#CCCCCC;stroke-width:0.4316;stroke-linecap:round;stroke-miterlimit:10;}
	.st425{fill:#FF7F00;}
	.st426{fill:#C4BB00;}
	.st427{fill:none;stroke:#807C3A;stroke-width:0.5075;stroke-miterlimit:10;}
	.st428{fill:#001F51;}
	.st429{fill:#B3B3B3;stroke:#454545;stroke-width:0.7194;stroke-miterlimit:10;}
	.st430{fill:#1A2F51;}
	.st431{fill:none;stroke:#6B6B6B;stroke-width:0.1797;stroke-linejoin:round;stroke-miterlimit:10;}
	.st432{stroke:#6B6B6B;stroke-width:0.2205;stroke-miterlimit:10;}
	.st433{fill:#999999;stroke:#6B6B6B;stroke-width:0.1797;stroke-linejoin:round;stroke-miterlimit:10;}
	.st434{fill:#999999;stroke:#6B6B6B;stroke-width:0.1797;stroke-miterlimit:10;}
	.st435{fill:none;stroke:#6B6B6B;stroke-width:0.1797;stroke-linecap:round;stroke-linejoin:round;stroke-miterlimit:10;}
	.st436{fill:#444444;stroke:#6B6B6B;stroke-width:0.1797;stroke-linecap:round;stroke-linejoin:round;stroke-miterlimit:10;}
	.st437{fill:#211B0D;}
	.st438{fill:#B8B8B8;}
	.st439{fill:#666666;}
	.st440{fill:#F39C12;}
	.st441{fill:#378FCA;}
	.st442{fill-rule:evenodd;clip-rule:evenodd;fill:#4C2463;}
	
		.st443{fill-rule:evenodd;clip-rule:evenodd;fill:none;stroke:#DBC20E;stroke-width:1.6954;stroke-linecap:round;stroke-linejoin:round;stroke-miterlimit:3;}
	.st444{fill-rule:evenodd;clip-rule:evenodd;fill:#DBC20E;}
	.st445{fill-rule:evenodd;clip-rule:evenodd;fill:#FFFF77;}
	
		.st446{fill-rule:evenodd;clip-rule:evenodd;fill:none;stroke:#663399;stroke-width:1.9865;stroke-linecap:round;stroke-linejoin:round;stroke-miterlimit:3;}
	.st447{fill-rule:evenodd;clip-rule:evenodd;fill:#339966;}
	.st448{fill-rule:evenodd;clip-rule:evenodd;fill:#663399;}
	.st449{fill-rule:evenodd;clip-rule:evenodd;fill:#0051E2;}
	
		.st450{fill-rule:evenodd;clip-rule:evenodd;fill:none;stroke:#FF8451;stroke-width:2.0299;stroke-linecap:round;stroke-linejoin:round;stroke-miterlimit:3;}
	.st451{fill-rule:evenodd;clip-rule:evenodd;fill:#FF8451;}
	
		.st452{fill-rule:evenodd;clip-rule:evenodd;fill:none;stroke:#FFFFFF;stroke-width:1.6036;stroke-linecap:round;stroke-linejoin:round;stroke-miterlimit:3;}
	
		.st453{fill-rule:evenodd;clip-rule:evenodd;fill:none;stroke:#000000;stroke-width:1.6113;stroke-linecap:round;stroke-linejoin:round;stroke-miterlimit:3;}
	
		.st454{fill-rule:evenodd;clip-rule:evenodd;fill:none;stroke:#333333;stroke-width:1.735;stroke-linecap:round;stroke-linejoin:round;stroke-miterlimit:3;}
	
		.st455{fill-rule:evenodd;clip-rule:evenodd;fill:none;stroke:#EEEEEE;stroke-width:1.5953;stroke-linecap:round;stroke-linejoin:round;stroke-miterlimit:3;}
	.st456{fill-rule:evenodd;clip-rule:evenodd;fill:#FFC940;}
	.st457{fill-rule:evenodd;clip-rule:evenodd;fill:#A60031;}
	.st458{fill-rule:evenodd;clip-rule:evenodd;fill:#A60031;stroke:#996600;stroke-width:0.8924;stroke-miterlimit:10;}
	.st459{fill:#FFCC99;}
	.st460{fill:#6F97FF;}
	.st461{fill:#382E45;}
	.st462{fill:none;stroke:#6F97FF;stroke-width:1.1899;stroke-linejoin:round;stroke-miterlimit:10;}
	.st463{fill:#050505;}
	.st464{fill:#663300;}
	.st465{fill:none;stroke:#666666;stroke-width:1.2073;stroke-miterlimit:10;}
	
		.st466{fill-rule:evenodd;clip-rule:evenodd;fill:none;stroke:#CC2707;stroke-width:1.5951;stroke-linecap:round;stroke-linejoin:round;stroke-miterlimit:3;}
	.st467{fill-rule:evenodd;clip-rule:evenodd;fill:#6699CC;}
	
		.st468{fill-rule:evenodd;clip-rule:evenodd;fill:none;stroke:#FF6666;stroke-width:1.5201;stroke-linecap:round;stroke-linejoin:round;stroke-miterlimit:3;}
	.st469{fill-rule:evenodd;clip-rule:evenodd;fill:#FA6666;}
	.st470{fill-rule:evenodd;clip-rule:evenodd;fill:#FFD354;}
	.st471{stroke:#444444;stroke-width:0.1714;stroke-miterlimit:10;}
	.st472{fill:#111111;}
	.st473{fill:#FFFFFF;stroke:#FFFFFF;stroke-width:0.1464;stroke-miterlimit:10;}
	.st474{fill:none;stroke:#FFFFFF;stroke-width:0.7318;stroke-miterlimit:10;}
	.st475{fill:#1E71A8;}
	.st476{fill:#999999;}
	.st477{clip-path:url(#SVGID_34_);}
	.st478{fill-rule:evenodd;clip-rule:evenodd;fill:#003692;}
	.st479{fill-rule:evenodd;clip-rule:evenodd;fill:#CCAD00;}
	
		.st480{fill-rule:evenodd;clip-rule:evenodd;fill:none;stroke:#0066CC;stroke-width:3.3065;stroke-linecap:round;stroke-miterlimit:10;}
	.st481{fill-rule:evenodd;clip-rule:evenodd;fill:#0066CC;}
	
		.st482{fill-rule:evenodd;clip-rule:evenodd;fill:none;stroke:#0066CC;stroke-width:3.3065;stroke-linecap:round;stroke-linejoin:round;stroke-miterlimit:10;}
	.st483{fill:#0066CC;}
	.st484{fill:#00366B;}
	.st485{fill:#CCAD00;}
	.st486{fill:#555555;}
	.st487{fill:#007C2C;}
	.st488{fill:#5B7380;}
	.st489{fill:#005E2C;}
	.st490{fill:#42535B;}
	.st491{fill:#1F9F00;}
	.st492{fill:#728791;}
	.st493{fill:#A7B4BB;}
	.st494{fill-rule:evenodd;clip-rule:evenodd;fill:none;stroke:#E00034;stroke-width:98.0427;stroke-miterlimit:10;}
	.st495{fill:none;stroke:#444444;stroke-width:3.785;stroke-linecap:round;stroke-miterlimit:10;}
	.st496{fill:none;stroke:#444444;stroke-width:3.785;stroke-linecap:round;stroke-miterlimit:10;stroke-dasharray:0,7.4976;}
	.st497{fill:none;stroke:#444444;stroke-width:3.785;stroke-linecap:round;stroke-miterlimit:10;stroke-dasharray:0,7.8054;}
	.st498{fill-rule:evenodd;clip-rule:evenodd;fill:#E2E2E2;}
	.st499{fill:none;stroke:#2D6D8A;stroke-width:3.4561;stroke-linecap:round;stroke-miterlimit:10;}
	.st500{fill-rule:evenodd;clip-rule:evenodd;fill:#111111;}
	.st501{fill-rule:evenodd;clip-rule:evenodd;fill:#2F5E5E;}
	
		.st502{fill-rule:evenodd;clip-rule:evenodd;fill:none;stroke:#880000;stroke-width:1.7015;stroke-linecap:round;stroke-linejoin:round;stroke-miterlimit:3;}
	.st503{fill-rule:evenodd;clip-rule:evenodd;fill:#880000;}
	.st504{fill-rule:evenodd;clip-rule:evenodd;fill:#E8C700;}
	
		.st505{fill-rule:evenodd;clip-rule:evenodd;fill:none;stroke:#111111;stroke-width:1.0877;stroke-linecap:round;stroke-miterlimit:10;}
	.st506{fill-rule:evenodd;clip-rule:evenodd;fill:#444444;}
	.st507{fill-rule:evenodd;clip-rule:evenodd;fill:#093166;}
	
		.st508{fill-rule:evenodd;clip-rule:evenodd;fill:none;stroke:#CC9966;stroke-width:1.7015;stroke-linecap:round;stroke-linejoin:round;stroke-miterlimit:3;}
	.st509{fill-rule:evenodd;clip-rule:evenodd;fill:#1366FF;}
	.st510{fill-rule:evenodd;clip-rule:evenodd;fill:#3C5A9A;}
	.st511{fill:#3C5A9A;}
	.st512{fill:#FEDA82;}
	.st513{fill:#EC8941;}
	.st514{fill:#F7A125;}
	.st515{fill:#0D0F0C;}
	.st516{fill:#F9AE26;}
	.st517{fill:#171918;}
	.st518{fill:#FEC62A;}
	.st519{fill:#FED570;}
	.st520{fill:#FBB928;}
	.st521{fill:#424442;}
	.st522{fill:#D2A728;}
	.st523{fill:#F0E544;}
	.st524{fill:#543214;}
	.st525{fill:#FEDE8F;}
	.st526{fill:#FEDA7F;}
	.st527{fill:#FEE7B0;}
</style>
<symbol  id="bike" viewBox="-4.3 -112 194.6 114">
	<g id="Layer_2_42_">
		<path class="st0" d="M181.6-72.8c0,8.5-3,15.7-9,21.7c-6,6-13.2,8.9-21.6,8.9c-5.5,0-10.4-1.2-14.9-3.7h0
			c-2.4-1.4-4.7-3.1-6.9-5.3l0,0c-6-6-8.9-13.2-8.9-21.7c0-8.5,3-15.7,8.9-21.6c6-6,13.2-9,21.7-9c8.5,0,15.7,3,21.6,9l0,0
			C178.6-88.4,181.6-81.2,181.6-72.8z M178.7-45c7.7-7.7,11.5-16.9,11.5-27.8c0-10.9-3.8-20.1-11.5-27.8l0,0
			c-7.6-7.7-16.9-11.5-27.8-11.5c-10.9,0-20.1,3.8-27.8,11.5c-7.6,7.6-11.5,16.9-11.5,27.8c0,10.9,3.8,20.1,11.5,27.8l0,0
			c2.7,2.7,5.6,4.9,8.7,6.6h0c5.7,3.2,12,4.8,19.1,4.8C161.8-33.5,171.1-37.3,178.7-45z M50.9-46.5L50.9-46.5
			c-4.5,2.8-9.6,4.3-15.3,4.4c-0.2,0-0.5,0-0.7,0c-8.5,0-15.7-3-21.7-8.9l0,0c-5.9-6-8.9-13.2-8.9-21.7c0-0.2,0-0.3,0-0.4v-0.1
			c0.1-8.3,3.1-15.3,8.9-21.2c6-6,13.2-9,21.7-9c8.5,0,15.7,3,21.6,9l0,0c5.9,5.9,8.9,12.9,9,21.2v0.1c0,0.1,0,0.3,0,0.4
			c0,2.9-0.3,5.6-1,8.2c-1.4,5-4,9.5-8,13.5C54.8-49.3,52.9-47.8,50.9-46.5z M55.5-39.2L55.5-39.2c2.5-1.6,4.9-3.5,7.2-5.8
			c5.1-5.1,8.5-10.9,10.2-17.4c0.9-3.3,1.3-6.7,1.3-10.4c0-0.2,0-0.3,0-0.5v0c-0.1-10.6-3.9-19.7-11.5-27.3l0,0
			C55.1-108.2,45.8-112,35-112c-10.9,0-20.1,3.8-27.8,11.5C-0.4-93-4.2-83.9-4.3-73.3v0c0,0.1,0,0.3,0,0.5
			c0,10.9,3.8,20.1,11.5,27.8l0,0c7.7,7.6,16.9,11.5,27.8,11.4c0.3,0,0.5,0,0.8,0c0,0,0.1,0,0.1,0C43.1-33.6,49.7-35.5,55.5-39.2z"
			/>
		<path class="st1" d="M175.5-72.8c0,6.8-2.4,12.5-7.2,17.4c-4.8,4.8-10.6,7.1-17.3,7.1c-4.4,0-8.3-1-11.9-3
			c-1.9-1.1-3.8-2.4-5.5-4.1c0,0,0,0,0-0.1c-4.7-4.8-7.1-10.6-7.1-17.3c0-6.8,2.3-12.5,7.1-17.3c4.8-4.8,10.6-7.2,17.4-7.2
			c6.8,0,12.5,2.4,17.3,7.2C173.1-85.3,175.5-79.5,175.5-72.8z M181.6-72.8c0-8.5-3-15.7-9-21.6l0,0c-6-6-13.2-9-21.6-9
			c-8.5,0-15.7,3-21.7,9c-6,6-8.9,13.2-8.9,21.6c0,8.5,3,15.7,8.9,21.7l0,0c2.2,2.1,4.5,3.9,6.9,5.3h0c4.4,2.5,9.4,3.7,14.9,3.7
			c8.5,0,15.7-3,21.6-8.9C178.6-57,181.6-64.3,181.6-72.8z M50.9-46.5c2-1.2,3.9-2.7,5.7-4.5c4-4,6.6-8.5,8-13.5
			c0.7-2.6,1-5.3,1-8.2c0-0.1,0-0.3,0-0.4v-0.1c-0.1-8.3-3.1-15.3-9-21.2l0,0c-6-6-13.2-9-21.6-9c-8.5,0-15.7,3-21.7,9
			c-5.9,5.9-8.8,12.9-8.9,21.2v0.1c0,0.1,0,0.2,0,0.4c0,8.5,3,15.7,8.9,21.7l0,0c6,5.9,13.2,8.9,21.7,8.9c0.2,0,0.5,0,0.7,0
			C41.3-42.2,46.4-43.7,50.9-46.5L50.9-46.5z M35.5-48.3c-0.2,0-0.4,0-0.5,0c-6.8,0-12.5-2.4-17.3-7.1l0-0.1
			c-4.7-4.8-7.1-10.5-7.1-17.3c0-0.1,0-0.2,0-0.3v-0.1c0-6.6,2.4-12.3,7.1-16.9c4.8-4.8,10.6-7.2,17.4-7.2c6.8,0,12.5,2.4,17.3,7.2
			c4.7,4.7,7.1,10.3,7.2,16.9v0.1c0,0.1,0,0.2,0,0.3c0,2.3-0.3,4.5-0.8,6.5c-1.1,4-3.2,7.6-6.4,10.8c-1.5,1.4-3,2.6-4.5,3.6h0
			C44.1-49.5,40-48.4,35.5-48.3z"/>
	</g>
	<g id="Layer_3_25_">
	</g>
	<g id="Layer_1_75_">
		<line class="st2" x1="71.1" y1="-11.5" x2="54.6" y2="-11.5"/>
		<path class="st3" d="M58.5-13.9l7.1-11.6h57.7V0h-16.8c-1.9-0.1-3.5-0.7-4.8-2c-1.2-1.3-1.9-2.8-1.9-4.6c0-1.8,0.6-3.4,1.9-4.6
			c1.3-1.3,2.8-2,4.6-2 M123.2-25.5l27.6-47.8 M65.5-25.5l29.4-47.8l28.3,47.8 M94.1-73.2H35l30.6,47.8"/>
	</g>
	<g id="Layer_4_7_">
	</g>
</symbol>
<symbol  id="front_x5F_body" viewBox="-5 -294 219.1 294">
	<g id="Layer_1_73_">
		<path class="st4" d="M6.7-78.4l-0.5-1c0.1,0.2,0.2,0.4,0.3,0.5L6.7-78.4z"/>
		<path class="st0" d="M43.5-261.3l24-13.9l7.3-15.2l-3.5-3.7L51-280.7c-0.6,0.3-1.2,0.5-1.8,0.9c-0.1,0-0.2,0.1-0.3,0.1
			c-0.1,0-0.2,0.1-0.3,0.1c-1.2,0.7-2.2,1.5-3,2.4l-9.3,6.6L43.5-261.3z"/>
		<path class="st5" d="M133.9-60.3h23.9c1.3-9.6,5.5-18,12.8-25.2c8.7-8.7,19.3-13.1,31.8-13.1c0.1,0,0.1,0,0.2,0
			c0.1,0,0.3,0.1,0.4,0.1c3-0.1,5.6-1.3,7.8-3.5c2.3-2.3,3.5-5,3.5-8.2c0-3.4-1.1-6.3-3.5-8.5c-2.1-2.1-4.6-3.2-7.6-3.4
			c-0.2,0-0.4,0-0.5-0.1c-0.3,0-0.7,0.1-1,0.1c-18.8,0-34.8,6.6-48.1,19.8C141.6-90.5,135.1-76.5,133.9-60.3z"/>
		<path class="st6" d="M84.5-98L17.8-59.5l15.6,27c5.4,8.4,12.1,15.3,20.1,20.5c2.7,1.8,5.5,3.3,8.5,4.7c4,2,8.3,3.6,12.8,4.8
			c9.4,2.4,18.6,3.1,27.5,2c9.3-1.2,18.4-4.3,27.1-9.4c0.4-0.3,0.9-0.5,1.4-0.9c0.4-0.2,0.8-0.4,1.1-0.5l1.9-1.1
			c3.8-2,7.3-4.6,10.6-7.9c8.7-8.8,13-19.3,13-31.8c0-0.2,0-0.4,0-0.6c-0.1-0.4-0.1-0.7-0.1-1c0-2.3,0.2-4.5,0.5-6.6h-23.9
			c-0.2,2-0.3,4-0.3,6c0,0.3,0,0.6,0,0.8c0,3-1,5.6-3.1,7.6c-2.1,2-4.5,3.1-7.4,3.1c-2.7,0-4.9-0.7-6.8-2.1
			c-0.5-0.4-0.9-0.8-1.3-1.1c-0.1-0.1-0.3-0.2-0.3-0.4c-0.3-0.3-0.6-0.6-0.9-1c-0.1-0.2-0.2-0.3-0.3-0.5L84.5-98z"/>
		<path class="st7" d="M67.5-275.1l-24,13.9c0.1,0.1,0.1,0.1,0.1,0.3l29.1,50.2c0.1,0.1,0.1,0.2,0.3,0.3l0.8,1.5
			c0.1,0.3,0.3,0.6,0.4,0.9c0.3,0.6,0.6,1.2,0.8,1.8l15.2,26.2l-30.1,17.4c-0.2,0.1-0.4,0.3-0.6,0.4l-36,20.9
			c-0.2,0.1-0.5,0.3-0.8,0.4c-1.7,1-3.3,2-4.8,3.1L-5-124.4v15.5v11.2l22.7,38.1l0,0L84.5-98l-16-27.5c-1.5-2.6-1.8-5.3-1.1-8.1
			c0.1-0.3,0.1-0.6,0.3-0.9c0.4-1.2,1-2.3,1.8-3.2c0.1-0.2,0.3-0.3,0.5-0.5c0.4-0.4,0.9-0.8,1.4-1.2c0.3-0.1,0.5-0.3,0.8-0.4
			c0,0,0,0,0,0c0.1-0.1,0.3-0.2,0.4-0.3c0.1,0,0.2-0.1,0.3-0.1c0.1,0,0.1,0,0.1-0.1c0.4-0.2,0.7-0.4,1-0.6l53.5-30.4l-28.5-49.5
			c-0.2-0.4-0.4-0.9-0.7-1.3c-0.1-0.1-0.1-0.3-0.2-0.4l-30.3-52.5C67.6-275,67.6-275.1,67.5-275.1z M6.7-78.4l-0.3-0.5
			c-0.1-0.1-0.2-0.3-0.3-0.5L6.7-78.4z M-5-108.9c2.7-0.3,5.4-1,8.2-2c13.8-4.9,27.4-10.4,40.8-16.4c6.1-2.8,12.3-5.1,18.6-7.1
			c2.6-0.8,4.6-1.9,6.2-3.2l0.6-0.1l-0.6,0.1c-1.6,1.3-3.6,2.4-6.2,3.2c-6.3,2-12.5,4.4-18.6,7.1c-13.4,6-27,11.5-40.8,16.4
			C0.5-109.9-2.2-109.2-5-108.9z"/>
	</g>
</symbol>
<symbol  id="head" viewBox="0 -351.2 305 351.2">
	<g id="Layer_1_74_">
		<path class="st8" d="M260.3-46.1c0,0.1,0.1,0.1,0.2,0.2c0,0,0.1,0.1,0.1,0.1c0,0,0,0.1,0.1,0.1c0.1-0.1,0.3-0.3,0.4-0.4H260.3z
			 M299.5-195.4c-0.2-0.8-0.5-1.6-0.7-2.4l0,0L299.5-195.4z M23.6-235.2C23.6-235.2,23.6-235.2,23.6-235.2L23.6-235.2L23.6-235.2z"
			/>
		<path class="st9" d="M298.8-197.8C298.8-197.8,298.8-197.8,298.8-197.8L298.8-197.8L298.8-197.8z M35.1-54.9
			c2.6,3.2,5.4,6.3,8.3,9.3l0,0L35.1-54.9L35.1-54.9z M238.8-216.4L238.8-216.4L238.8-216.4L238.8-216.4z"/>
		<path class="st5" d="M299.5-195.4l-0.8-2.4h0c-0.1-0.2-0.1-0.4-0.2-0.7H196.4l-78.1,78.7v34.6c10.6-1.9,21.9-2.8,33.8-2.8
			c32.7,0,60.7,7,83.8,21c10.5,6.4,18.7,13.3,24.4,20.9h0.8c-0.1,0.1-0.3,0.3-0.4,0.4l0.5,0.5l0,0c1.5-1.5,3-3.1,4.5-4.7l0,0
			c5.1-5.6,9.8-11.6,14-17.9l0,0c2.4-3.7,4.6-7.5,6.7-11.4c0.2-0.4,0.4-0.8,0.6-1.2c5.9-10.8,10.4-22.2,13.5-34.2
			c0.2-0.9,0.4-1.8,0.6-2.8c1.4-6.1,2.4-12.3,3-18.8l0.1-0.6c0-0.6,0.1-1.3,0.1-1.9c0.3-3.3,0.5-6.6,0.6-10c0-1.5,0-3,0-4.5
			c0-0.6,0-1.3,0-1.8c0-0.5,0-1.1,0-1.6c0-0.2,0-0.3,0-0.5c-0.2-6.7-0.6-13.3-1.5-19.6L299.5-195.4z M30-244.4h39.9l0,49.8
			c-7.7,8.8-11.5,19.2-11.5,31.2c0,13.2,4.6,24.5,14,33.8c9.3,9.3,20.6,14,33.8,14l0.1-206.5l-53.6,53.7c-2.7,2.4-5.3,4.9-8,7.5
			c-0.3,0.3-0.6,0.6-0.9,1c-2.2,2.3-4.4,4.6-6.5,6.9C34.7-250.2,32.3-247.3,30-244.4z M293.5-212.5c-0.5-1.3-1.1-2.6-1.7-3.9
			c-0.4-0.8-0.7-1.6-1.1-2.4c-0.2-0.4-0.4-0.8-0.6-1.3l-2.2-4.2l0.2,0.4l-13.6-21.1l-5-6.2c-1.7-2-3.4-3.9-5.3-5.9
			c-0.9-1-1.9-2-2.8-3c-0.4-0.4-0.8-0.8-1.2-1.1c-3.8-3.8-7.8-7.4-11.8-10.8c-0.1-0.1-0.3-0.2-0.5-0.4v0.4h-42.8v59.3H293.5z
			 M238.8-216.4L238.8-216.4L238.8-216.4L238.8-216.4z"/>
		<path class="st10" d="M298.6-198.5c-1.3-4.3-2.8-8.4-4.4-12.5c-0.2-0.5-0.4-1-0.6-1.5h-88.3v-59.3H248v-0.4v-79.1H135.3l-29,29.1
			l-0.1,206.5c-13.2,0-24.5-4.7-33.8-14c-9.3-9.3-14-20.6-14-33.8c0-12,3.8-22.4,11.5-31.2l0-49.8H30c-2.3,3-4.4,6.1-6.5,9.2l0,0
			h-0.1c-2.8,4.3-5.3,8.6-7.6,13.1c-6.5,12.6-11,26-13.5,40.3C1-173.7,0.2-165.3,0-156.5c0,0.5,0,1,0,1.5c0,0.6,0,1.2,0,1.8
			c0,1.5,0,3,0,4.5c0.1,2.2,0.2,4.5,0.3,6.6c0.1,1.1,0.1,2.3,0.3,3.4c0.9,10.7,2.8,20.9,5.8,30.7c1.2,4,2.6,7.8,4.1,11.6l5.1,11.3
			c0,0.1,0.1,0.2,0.2,0.3c0,0.1,0.1,0.2,0.1,0.3l3.7,6.9c0.2,0.3,0.4,0.7,0.6,1c4.5,7.9,9.6,15.2,15,21.9h0l8.3,9.3l0,0
			C62-26.5,85.1-13.2,112.9-5.7c40.8,11,79.5,6.1,116-14.9c12.2-7.1,23-15.3,32.3-24.6l-0.5-0.5c-0.1,0-0.1-0.1-0.1-0.1
			c0,0-0.1-0.1-0.1-0.1c-0.1-0.1-0.1-0.1-0.2-0.2c-5.7-7.6-13.9-14.5-24.4-20.9c-23.1-14-51.1-21-83.8-21c-11.9,0-23.2,0.9-33.8,2.8
			v-34.6l78.1-78.7H298.6z"/>
	</g>
	<g id="Layer_2_41_">
	</g>
</symbol>
<symbol  id="skyscraper-02b" viewBox="-55 0 110 283.5">
	<g id="mast_2_">
	</g>
	<g id="top_7_">
		<rect x="-35" y="258.5" class="st11" width="70" height="25"/>
	</g>
	<g id="base_7_">
		<rect x="-45" class="st12" width="90" height="280"/>
		<rect x="-55" class="st11" width="110" height="20"/>
	</g>
	<g id="doors_2_">
		<rect x="-6.8" class="st13" width="6" height="15"/>
		<rect x="0.8" class="st13" width="6" height="15"/>
	</g>
	<g id="windows_7_">
		<g>
			<rect x="-45" y="253.6" class="st13" width="10" height="15"/>
			<rect x="-29" y="253.6" class="st13" width="10" height="15"/>
			<rect x="-13" y="253.6" class="st13" width="10" height="15"/>
			<rect x="3" y="253.6" class="st13" width="10" height="15"/>
			<rect x="19" y="253.6" class="st13" width="10" height="15"/>
			<rect x="35" y="253.6" class="st13" width="10" height="15"/>
		</g>
		<g>
			<rect x="-45" y="228.6" class="st13" width="10" height="15"/>
			<rect x="-29" y="228.6" class="st13" width="10" height="15"/>
			<rect x="-13" y="228.6" class="st13" width="10" height="15"/>
			<rect x="3" y="228.6" class="st13" width="10" height="15"/>
			<rect x="19" y="228.6" class="st13" width="10" height="15"/>
			<rect x="35" y="228.6" class="st13" width="10" height="15"/>
		</g>
		<g>
			<rect x="-45" y="203.6" class="st13" width="10" height="15"/>
			<rect x="-29" y="203.6" class="st13" width="10" height="15"/>
			<rect x="-13" y="203.6" class="st13" width="10" height="15"/>
			<rect x="3" y="203.6" class="st13" width="10" height="15"/>
			<rect x="19" y="203.6" class="st13" width="10" height="15"/>
			<rect x="35" y="203.6" class="st13" width="10" height="15"/>
		</g>
		<g>
			<rect x="-45" y="178.6" class="st13" width="10" height="15"/>
			<rect x="-29" y="178.6" class="st13" width="10" height="15"/>
			<rect x="-13" y="178.6" class="st13" width="10" height="15"/>
			<rect x="3" y="178.6" class="st13" width="10" height="15"/>
			<rect x="19" y="178.6" class="st13" width="10" height="15"/>
			<rect x="35" y="178.6" class="st13" width="10" height="15"/>
		</g>
		<g>
			<rect x="-45" y="153.6" class="st13" width="10" height="15"/>
			<rect x="-29" y="153.6" class="st13" width="10" height="15"/>
			<rect x="-13" y="153.6" class="st13" width="10" height="15"/>
			<rect x="3" y="153.6" class="st13" width="10" height="15"/>
			<rect x="19" y="153.6" class="st13" width="10" height="15"/>
			<rect x="35" y="153.6" class="st13" width="10" height="15"/>
		</g>
		<g>
			<rect x="-45" y="128.6" class="st13" width="10" height="15"/>
			<rect x="-29" y="128.6" class="st13" width="10" height="15"/>
			<rect x="-13" y="128.6" class="st13" width="10" height="15"/>
			<rect x="3" y="128.6" class="st13" width="10" height="15"/>
			<rect x="19" y="128.6" class="st13" width="10" height="15"/>
			<rect x="35" y="128.6" class="st13" width="10" height="15"/>
		</g>
		<g>
			<rect x="-45" y="103.6" class="st13" width="10" height="15"/>
			<rect x="-29" y="103.6" class="st13" width="10" height="15"/>
			<rect x="-13" y="103.6" class="st13" width="10" height="15"/>
			<rect x="3" y="103.6" class="st13" width="10" height="15"/>
			<rect x="19" y="103.6" class="st13" width="10" height="15"/>
			<rect x="35" y="103.6" class="st13" width="10" height="15"/>
		</g>
		<g>
			<rect x="-45" y="78.6" class="st13" width="10" height="15"/>
			<rect x="-29" y="78.6" class="st13" width="10" height="15"/>
			<rect x="-13" y="78.6" class="st13" width="10" height="15"/>
			<rect x="3" y="78.6" class="st13" width="10" height="15"/>
			<rect x="19" y="78.6" class="st13" width="10" height="15"/>
			<rect x="35" y="78.6" class="st13" width="10" height="15"/>
		</g>
		<g>
			<rect x="-45" y="53.6" class="st13" width="10" height="15"/>
			<rect x="-29" y="53.6" class="st13" width="10" height="15"/>
			<rect x="-13" y="53.6" class="st13" width="10" height="15"/>
			<rect x="3" y="53.6" class="st13" width="10" height="15"/>
			<rect x="19" y="53.6" class="st13" width="10" height="15"/>
			<rect x="35" y="53.6" class="st13" width="10" height="15"/>
		</g>
		<g>
			<rect x="-45" y="28.6" class="st13" width="10" height="15"/>
			<rect x="-29" y="28.6" class="st13" width="10" height="15"/>
			<rect x="-13" y="28.6" class="st13" width="10" height="15"/>
			<rect x="3" y="28.6" class="st13" width="10" height="15"/>
			<rect x="19" y="28.6" class="st13" width="10" height="15"/>
			<rect x="35" y="28.6" class="st13" width="10" height="15"/>
		</g>
	</g>
</symbol>
<g>
	<g>
		<g>
			<g>
				<rect x="789.1" y="40.4" class="st478" width="0.6" height="0.5"/>
				<rect x="788.6" y="40.4" class="st479" width="0.5" height="0.5"/>
				<rect x="789.7" y="40.4" class="st479" width="0.5" height="0.5"/>
			</g>
			<line class="st480" x1="789.3" y1="42.1" x2="797.5" y2="43.2"/>
			<rect x="784.3" y="40.6" class="st481" width="6.4" height="18.8"/>
			<polygon class="st341" points="786.7,34.3 790.8,34.7 790.1,41.4 786,40.9 			"/>
			<polygon class="st341" points="790,36.1 792,38 790.4,38.2 			"/>
			<polyline class="st482" points="784.7,52 780.8,48.1 780.8,47.7 784.8,42.1 			"/>
			<polygon class="st370" points="791.7,33.6 786.5,33 786.3,34.5 791.5,35.1 			"/>
			<polygon class="st4" points="786.2,37.2 786.8,37.3 786.8,38.1 787.2,38.1 787.6,38.2 788.2,34.7 786.5,34.5 			"/>
			<g>
				<path class="st483" d="M787,34.4c-0.9,0.2-2.2,0.4-2.2,0s1.8-1.8,4-2.5c2.2-0.8,2.5-1,3.7-1c1.2,0,1.3,0.5,1.3,0.9
					c0,0.5-0.4,1.3-1.2,2C791.9,34.5,787,34.4,787,34.4z"/>
				<path class="st483" d="M787.6,34.8c0,0,0.2,0.5,1.7,1c1.6,0.5,2.5,0.3,3.5,0.4s1.1-0.1,0.8-0.5c-0.3-0.4-0.8-0.9-0.8-0.9
					L787.6,34.8z"/>
				<path class="st484" d="M785.9,34.4l0.2,1.1c0,0,0.7-0.3,2.5-0.3s2,0.2,3,0.1c1-0.1,1.5-0.2,1.5-0.2l-0.2-1.4c0,0-1-0.2-2.8-0.1
					S785.9,34.4,785.9,34.4z"/>
				
					<ellipse transform="matrix(0.8742 -0.4856 0.4856 0.8742 83.4799 388.6661)" class="st485" cx="791.8" cy="33.2" rx="0.8" ry="0.8"/>
			</g>
			<polygon class="st4" points="788.4,38.7 790.7,39.3 790,42.2 786.7,41.6 786.8,38.1 787.6,38.2 			"/>
			<g>
				<rect x="784.6" y="40.4" class="st478" width="0.6" height="0.5"/>
				<rect x="784.1" y="40.4" class="st479" width="0.5" height="0.5"/>
				<rect x="785.3" y="40.4" class="st479" width="0.5" height="0.5"/>
			</g>
		</g>
		<path class="st486" d="M821.1,62.1c0,0.2,0,0.4,0.1,0.6c0.1,0.7,0.2,1.4,0.2,2.1c0.1,0.7,0.2,1.4,0.3,2.1c0.1,0.6,0.1,1.3,0.2,1.9
			c-0.1,0.7-0.2,1.4-0.3,2.1c-0.1,0.1-0.2,0.2-0.3,0.4c-0.6,0.2-1.3,0.3-1.9,0.5c-0.4-0.3-0.9-0.6-1.3-0.8c-0.1-0.7-0.2-1.4-0.3-2.1
			c0.2-1.7,0.4-3.3,0.7-5c0-0.3,0.1-0.6,0.1-1c0.1-0.7,0.2-1.4,0.3-2.1c0.1-0.6,0.1-1.3,0.2-1.9c0.1-0.7,0.1-1.4,0.2-2.1
			c0.1-0.8,0.2-1.5,0.3-2.3c0.2,0,0.4,0,0.5,0c0.1,0.8,0.2,1.5,0.3,2.3c0.1,0.6,0.2,1.2,0.2,1.7c0.1,0.8,0.2,1.5,0.3,2.3
			C820.9,61.2,821,61.6,821.1,62.1z"/>
		<path class="st487" d="M713.4,47.9c-0.1-0.6-0.2-1.1-0.4-1.7c-0.1-0.5-0.2-1-0.3-1.5c-0.2-1.1-0.5-2.1-0.7-3.2c0-0.1,0-0.2,0-0.3
			c-0.1-0.5-0.2-0.9-0.3-1.4c-0.1-0.5-0.2-1-0.3-1.5c-0.1-0.5-0.2-0.9-0.3-1.4c-0.1-0.2-0.2-0.3-0.3-0.5c0,0,0-0.1,0-0.1
			c0-0.4,0.1-0.8,0.1-1.2c0.4,0,0.8,0,1.2,0c0.6,0,1.1,0,1.7,0c0.5,0,1,0,1.5,0c0.5,0,1.1,0,1.6,0c0.3,0,0.6,0,0.9,0
			c0.2,0,0.4,0,0.6,0c0.6,0.3,1.1,0.7,1.7,1c0.1,0.1,0.3,0.2,0.4,0.4c0.4,0.4,0.7,0.8,1.1,1.3c0.1,0.1,0.2,0.3,0.3,0.4
			c0.5,0.8,0.9,1.5,1.4,2.3c0.2,0.3,0.3,0.6,0.5,0.9c0.5,1.1,1,2.1,1.5,3.2c0.1,0.7,0.5,1,1.2,0.6c1.1-0.2,2.1-0.5,3.2-0.7
			c0.5-0.1,0.9-0.2,1.4-0.3l0.1,0l0,0c0.6-0.1,1.1-0.2,1.7-0.3c0.5-0.1,42.8-1.6,43.3-1.7c0.3,0,0.7-0.1,1-0.1
			c0.4,2.5,2,4.2,4.2,5.2c2.7,1.3,5.5,1.7,8.5,1.5c1.9-0.1,3.7-0.4,5.4-1.1c1.8-0.7,3.4-1.6,4.6-3.2c0.9-1.3,1.3-2.7,1.3-4.2
			c0.1,0,0.3-0.1,0.4-0.1c0.6,0,1.2,0,1.8,0c0.5,0,1,0,1.6,0c0.6,0,1.1,0,1.7,0.1c0.5,0.1,4,0.1,4.5,0.2c0,7,0,14,0,21
			c0,0.3,0.1,0.6,0.2,0.9c0,0,0,0.1-0.1,0.1c-0.4,0-0.7,0-1.1,0c-0.1,0-3.3,0-3.5,0.1c0,0-0.1,0-0.1,0c-0.6,0-1.1,0-1.7,0
			c-0.5,0-1,0-1.5,0c-0.6,0-1.1,0-1.7,0c-0.5,0-1,0-1.5,0c-0.6,0-1.1,0-1.7,0c-0.5,0-1,0-1.5,0c-0.6,0-1.1-0.1-1.7-0.1
			c-0.5,0-1,0-1.5,0c-0.1,0-0.2,0-0.3,0c-2.3-0.2-4.6-0.4-6.8-0.6C785.9,61.8,733,59,733,59c-0.1,0-0.1,0-0.2,0c-1-0.2-2-0.4-3-0.6
			c-0.6-0.1-1.1-0.2-1.7-0.3c-0.5-0.1-1-0.3-1.5-0.4c-0.4-0.1-0.8-0.2-1.2-0.3c-0.7-0.2-1.3-0.3-2-0.5c-0.6-0.2-1.1-0.3-1.7-0.5
			c-0.5-0.1-0.9-0.3-1.4-0.4c-0.6-0.2-1.2-0.5-1.8-0.7c-0.5-0.2-1-0.5-1.5-0.7c-0.5-0.2-0.9-0.4-1.4-0.6c-0.4-0.5-0.7-0.9-1.1-1.4
			c-0.3-1.1-0.5-2.1-0.8-3.2C713.6,48.9,713.5,48.4,713.4,47.9z"/>
		<path class="st488" d="M821.4,51.1c-0.1,0.5-0.1,1-0.2,1.5c-0.1,0.2-0.2,0.4-0.3,0.5c-0.3,0.3-0.6,0.6-1,0.8c-0.1,0-0.3,0-0.4,0
			c-0.5,0-1,0-1.5,0c0-1.7,0-3.4,0-5.1c0.4,0,0.8,0,1.2,0c0.3,0,0.6,0.1,0.9,0.1C820.6,49.8,821,50.4,821.4,51.1z"/>
		<path class="st486" d="M820.3,48.3c-0.4-0.1-0.7-0.1-1.1-0.2c-0.1-0.5-0.1-0.9-0.2-1.4c-0.1-0.7-0.2-1.4-0.3-2.1
			c-0.1-0.6-0.1-1.3-0.2-1.9c-0.1-0.7-0.2-1.4-0.3-2.1c-0.1-0.6-0.2-1.3-0.3-1.9c-0.1-0.9-0.1-1.8-0.3-2.6c-0.3-1.7,0-2.4,1.6-3.1
			c0.6,0.2,1.3,0.4,1.9,0.6c0.2,0.4,0.4,0.8,0.6,1.2c0,0.6-0.1,1.3-0.1,1.9c-0.1,0.7-0.2,1.5-0.3,2.2c0.1,0.1,0.1,0.1,0.2,0.2
			c0,0-0.1,0-0.1,0.1c-0.1,0.5-0.2,1.1-0.3,1.6c-0.1,0.6-0.1,1.3-0.2,1.9c-0.2,1.1-0.4,2.2-0.6,3.4c0,0.3,0,0.6,0,0.9
			C820.4,47.3,820.3,47.8,820.3,48.3z"/>
		<path class="st489" d="M793.9,25.5c0.5-0.1,1-0.2,1.5-0.2c0.6,0,1.1-0.1,1.7-0.1c0.5,0,1,0,1.5,0c0.6-0.1,1.1-0.1,1.7-0.2
			c0.4,0,0.7-0.1,1.1-0.1c0.2,0,0.3,0,0.5,0c0.6,0,1.1,0,1.7,0c0.5,0.1,1,0.2,1.5,0.3c0.2,0.1,0.4,0.2,0.5,0.3
			c0.3,0.6,0.6,1.2,1,1.8c-0.1,0.8-0.1,1.7-0.2,2.5c-0.1,0.1-0.1,0.3-0.2,0.4c-0.4,0.4-0.8,0.9-1.2,1.3c-0.4,0.1-0.7,0.2-1.1,0.3
			c-0.7,0-1.4,0.1-2.1,0.1c-0.2,0-0.4,0-0.6,0c-1.1,0.1-2.3,0.1-3.4,0.2c-0.2,0-0.5,0-0.7,0.1c-0.6,0-1.1,0-1.7,0
			c-0.5,0-1,0.1-1.5,0.1c-0.6,0-1.1,0.1-1.7,0.1c-0.5,0-1,0.1-1.5,0.1c-0.6,0-1.1,0.1-1.7,0.1c-0.5,0-1,0-1.5,0.1
			c-0.6,0-1.1,0.1-1.7,0.1c-0.5,0-1,0-1.5,0c-0.6,0-1.1,0.1-1.7,0.1c-0.5,0-1,0-1.5,0.1c-0.1,0-0.3,0-0.4,0
			c-1.2,0.1-2.3,0.1-3.5,0.2c0,0-0.1,0-0.1,0c-0.6,0-1.1,0-1.7,0c0,0-0.1,0-0.1,0c-0.2,0-0.3,0-0.5,0.1c0,0-0.1,0-0.1,0
			c-0.6,0-1.1,0-1.7,0c-0.5,0-0.9,0-1.4,0c-0.1,0-0.2,0-0.2,0c-0.4-0.5-0.7-1-1.1-1.5c0.3-0.6,0.6-1.1,0.9-1.7
			c0.1,0,0.2-0.1,0.3-0.1c0.5-0.1,1-0.3,1.5-0.4c0.6-0.2,1.1-0.3,1.7-0.5c0.5-0.1,1-0.3,1.6-0.4c0,0,0.1,0,0.1-0.1
			c0.5-0.1,1-0.2,1.5-0.3c0.4-0.1,0.8-0.2,1.2-0.3c0.1,0,0.2-0.1,0.3-0.1c0.6-0.1,1.1-0.2,1.7-0.3c0.2-0.1,0.4-0.1,0.6-0.2
			c0.8-0.2,1.5-0.3,2.3-0.5c0.1,0,0.2-0.1,0.3-0.1c0.5-0.1,1-0.2,1.5-0.2c0.6-0.1,1.1-0.2,1.7-0.3c0.5-0.1,1-0.2,1.5-0.3
			c0.6-0.1,1.1-0.2,1.7-0.3c0.5-0.1,1-0.1,1.5-0.2c0.5-0.1,0.9-0.1,1.4-0.2C793.7,25.6,793.8,25.6,793.9,25.5z"/>
		<path class="st490" d="M791.5,75.6c-0.3-0.3-0.5-0.5-0.8-0.8c-0.4-0.5-0.7-1-1.1-1.5c-0.1-1-0.3-2-0.4-3c0.2-0.6,0.4-1.2,0.6-1.7
			c0.1-0.2,0.2-0.3,0.3-0.5c0.3-0.3,0.6-0.7,1.1-0.9c0.9-0.5,1.8-0.8,2.7-1.2c0.5,0,1,0.1,1.5,0.1c0.6,0.2,1.1,0.4,1.7,0.6
			c0.1,0.1,0.3,0.2,0.4,0.3c0.4,0.4,0.7,0.8,1.1,1.1c0.1,0.2,0.2,0.4,0.3,0.5c0.2,0.5,0.3,1,0.5,1.5c0,0.5,0.1,1,0.1,1.5
			c-0.1,0.5-0.3,1-0.4,1.5c-0.1,0.1-0.1,0.3-0.2,0.4c-0.6,0.6-1.2,1.2-1.8,1.9c-1.7,1-3.5,0.9-5.3,0.2c0,0,0,0,0,0
			C791.7,75.7,791.6,75.7,791.5,75.6z M796.1,71.3c0-1-0.7-1.7-1.6-1.8c-1,0-1.8,0.7-1.8,1.7c0,1,0.7,1.7,1.6,1.7
			C795.3,72.9,796,72.2,796.1,71.3z"/>
		<path class="st491" d="M801.3,40.4c0,1.5-0.4,2.9-1.3,4.2c-1.2,1.6-2.9,2.5-4.6,3.2c-1.7,0.7-3.5,1-5.4,1.1
			c-3,0.2-5.8-0.2-8.5-1.5c-2.2-1.1-3.8-2.7-4.2-5.2c0,0,0,0,0,0c1.1-0.1,2.2-0.3,3.4-0.4c0.2,0.4,0.5,0.9,0.7,1.3
			c0.4,0.3,0.8,0.7,1.3,1c1.1,0.4,2.1,0.7,3.2,1.1c0.6,0.1,1.1,0.2,1.7,0.3c0.5,0,1,0,1.5,0c0.6,0,1.1-0.1,1.7-0.1
			c0.5-0.1,1-0.2,1.5-0.2c0.6-0.2,1.1-0.3,1.7-0.5c0.4-0.2,0.7-0.3,1.1-0.5c0.1-0.1,0.3-0.1,0.4-0.2c0.4-0.2,0.7-0.5,1.1-0.7
			c0.8-0.7,1.4-1.5,1.2-2.6c0-0.1,0.1-0.2,0.1-0.3c1.1,0,2.3,0,3.4,0C801.3,40.3,801.3,40.3,801.3,40.4z"/>
		<path class="st492" d="M793.9,66c-0.9,0.4-1.8,0.8-2.7,1.2c-0.4,0.2-0.7,0.6-1.1,0.9c-0.4-0.7-0.8-1.3-1.1-2
			c-0.1-0.3-0.3-0.5-0.4-0.8c-0.6-1.1-1.2-2.1-1.8-3.2c0-0.1-0.1-0.2-0.1-0.3c2.3,0.2,4.6,0.4,6.9,0.6c0.1,1,0.2,2,0.3,2.9
			C793.9,65.6,793.9,65.8,793.9,66z"/>
		<path class="st486" d="M777.3,42.1c0-0.2-0.1-0.4-0.1-0.6c0-0.5,0-1.1,0-1.6c0-0.3,0-0.5,0-0.8c0-0.1,0-0.2,0-0.3
			c0-0.2,0-0.3,0-0.5c0-0.5,0-1.1,0-1.6c0-0.5,0-1,0-1.6c0-0.6,0-1.2,0-1.8c1.2-0.1,2.3-0.1,3.5-0.2c0,0.7,0,1.4,0,2
			c0,0.5,0,1,0,1.5c0,0.6,0,1.1,0,1.7c0,0.5,0,1,0,1.5c0,0.6,0,1.1,0,1.7c0,0.1,0,0.1,0,0.2C779.5,41.8,778.4,42,777.3,42.1z"/>
		<path class="st486" d="M801.4,40c0,0.1-0.1,0.2-0.1,0.3c-1.1,0-2.3,0-3.4,0c0-0.2,0-0.3-0.1-0.5c0-0.5,0-1,0-1.5
			c0-0.3,0-0.6,0-0.9c0-0.3,0-0.5,0-0.8c0-0.5,0-1,0-1.5c0-0.3,0-0.6,0-0.9c0-0.3,0-0.5,0-0.8c0-0.4,0-0.8,0-1.3
			c1.1-0.1,2.3-0.1,3.4-0.2c0,0.5,0,1,0,1.5c0,0.6,0,1.1,0,1.7c0,0.5,0,1,0,1.5c0,0.6,0,1.1,0,1.7C801.3,38.8,801.3,39.4,801.4,40z"
			/>
		<path class="st493" d="M796.1,71.3c0,0.9-0.8,1.6-1.7,1.6c-0.9,0-1.7-0.8-1.6-1.7c0-1,0.8-1.7,1.8-1.7
			C795.4,69.6,796.1,70.3,796.1,71.3z"/>
		<path class="st491" d="M818.1,55.8c0,0.6-0.1,1.1-0.1,1.7c-0.2,1.2-0.7,2.3-1.6,3.2c0,0-0.1,0.1-0.1,0.1c-0.9,0.5-1.9,0.9-2.8,1.4
			c-0.1,0-0.1,0-0.2,0c-0.1,0-0.3,0.1-0.4,0.1c-0.5,0-0.9,0.1-1.4,0.1c-0.1-0.3-0.2-0.6-0.2-0.9c0-7,0-14,0-21
			c1.1,0.2,2.2,0.4,3.4,0.6c0.6,0.3,1.1,0.6,1.7,1c0.3,0.3,0.5,0.6,0.8,0.9c0.3,0.5,0.5,1,0.8,1.5c0.1,0.6,0.2,1.1,0.3,1.7
			c0,0.6,0,1.1,0,1.7c0,0.3,0,0.7,0,1c0,1.7,0,3.4,0,5.1C818.1,54.6,818.1,55.2,818.1,55.8z"/>
	</g>
	<path class="st494" d="M4.9,54.5c0,0,54.5,5.4,128,0c76.1-5.6,204.3,0,256-2.7c49.3-2.6,92.6-2.7,111.7-2.7s138.9,0,138.9,0"/>
	<g>
		<g>
			<line class="st495" x1="636" y1="5.7" x2="636" y2="5.7"/>
			<line class="st496" x1="642.6" y1="9.2" x2="705.6" y2="42.5"/>
			<line class="st495" x1="708.9" y1="44.3" x2="708.9" y2="44.3"/>
		</g>
	</g>
	<g>
		<g>
			<line class="st495" x1="636" y1="95.4" x2="636" y2="95.4"/>
			<line class="st497" x1="642.6" y1="91.2" x2="705.6" y2="52"/>
			<line class="st495" x1="708.9" y1="50" x2="708.9" y2="50"/>
		</g>
	</g>
	<g>
		<path class="st35" d="M108.1,27l-3.6,2c-0.1,0.1-0.2,0.1-0.3,0.1c-0.2,0-0.2-0.1-0.2-0.3v-3.3c0-0.2,0.2-0.4,0.3-0.5l5-2.7
			c0.2-0.1,0.3-0.2,0.5-0.2h1.7c0.2,0,0.3,0.1,0.3,0.3v20.8c0,0.2-0.1,0.3-0.3,0.3h-3.1c-0.2,0-0.3-0.1-0.3-0.3V27z"/>
		<path class="st35" d="M117.3,22.6c0-0.2,0.1-0.3,0.3-0.3h12c0.2,0,0.3,0.1,0.3,0.3v3c0,0.2-0.1,0.3-0.3,0.3h-8.8l-0.7,4.6
			c1.3-0.6,2.5-1,4.2-1c4.2,0,6.9,2.5,6.9,7.2c0,4.9-3.3,7.3-7.6,7.3c-4.4,0-7.3-2.6-7.6-6.6c0-0.3,0.2-0.5,0.4-0.5h3
			c0.2,0,0.3,0.1,0.4,0.5c0.5,2.1,2,3,4,3c2.1,0,3.7-1.3,3.7-3.6c0-2.2-1.5-3.6-3.9-3.6c-1.5,0-2.8,0.4-4,1.4
			c-0.2,0.2-0.3,0.3-0.5,0.3h-2.6c-0.2,0-0.3-0.2-0.3-0.3L117.3,22.6z"/>
		<path class="st35" d="M134.6,22.6c0-0.2,0.1-0.3,0.3-0.3h3.1c0.2,0,0.3,0.1,0.3,0.3v7c1.3-1,2.7-1.5,4.4-1.5c4.1,0,7,3.1,7,8
			s-2.8,8-7,8c-1.8,0-3.2-0.6-4.4-1.6v0.9c0,0.2-0.1,0.3-0.3,0.3H135c-0.2,0-0.3-0.1-0.3-0.3V22.6z M142,40.7c2.4,0,3.9-2,3.9-4.7
			s-1.4-4.7-3.9-4.7s-3.9,2-3.9,4.7S139.6,40.7,142,40.7z"/>
		<path class="st35" d="M163.7,38.8c0.2-0.2,0.2-0.3,0.4-0.3h3.1c0.2,0,0.2,0.1,0.2,0.2c0,0.1,0,0.1-0.1,0.3c-1.3,3.4-3.8,5-7.5,5
			c-4.4,0-7.9-3.2-7.9-8s3.5-8,7.9-8c5,0,7.9,3.9,7.9,8.3v0.5c0,0.2-0.1,0.3-0.3,0.3h-11.7c0.3,2,1.8,3.5,4,3.5
			C161.7,40.7,162.9,40.1,163.7,38.8z M156,34.1h7.9c-0.6-1.7-1.8-2.8-4-2.8C158.2,31.3,156.6,32.4,156,34.1z"/>
		<path class="st35" d="M170.4,22.6c0-0.2,0.1-0.3,0.3-0.3h3.1c0.2,0,0.3,0.1,0.3,0.3v20.8c0,0.2-0.1,0.3-0.3,0.3h-3.1
			c-0.2,0-0.3-0.1-0.3-0.3V22.6z"/>
		<path class="st35" d="M185,28c4.7,0,8.2,3.3,8.2,8s-3.5,8-8.2,8c-4.7,0-8.2-3.3-8.2-8S180.3,28,185,28z M185,40.7
			c2.5,0,4.3-1.9,4.3-4.7s-1.7-4.7-4.3-4.7c-2.5,0-4.3,1.9-4.3,4.7S182.4,40.7,185,40.7z"/>
		<path class="st35" d="M212.5,43.4c-0.1,0.2-0.2,0.3-0.4,0.3h-3.3c-0.2,0-0.3-0.1-0.4-0.3l-2.8-9.4l-2.8,9.4
			c-0.1,0.2-0.2,0.3-0.4,0.3H199c-0.2,0-0.3-0.1-0.4-0.3l-4.5-14.6c0-0.1,0-0.2,0-0.2c0-0.2,0.1-0.2,0.2-0.2h3.2
			c0.3,0,0.4,0.1,0.4,0.3l2.8,10.3l3-9.6c0.1-0.2,0.1-0.3,0.3-0.3h3.2c0.2,0,0.3,0.1,0.3,0.3l3,9.6l2.8-10.3
			c0.1-0.2,0.1-0.3,0.4-0.3h3.2c0.1,0,0.2,0.1,0.2,0.2c0,0.1,0,0.1,0,0.2L212.5,43.4z"/>
		<path class="st35" d="M245.1,36c0.2,0,0.3,0.1,0.3,0.3c-0.6,4.7-4.6,7.7-9.6,7.7c-4.8,0-10-3.3-10-11c0-7.7,5.1-11,10-11
			c5,0,9,2.9,9.6,7.7c0,0.2-0.1,0.3-0.3,0.3h-3.1c-0.2,0-0.3-0.1-0.4-0.3c-0.9-3-3-4.1-5.8-4.1c-2.9,0-6,2.4-6,7.5
			c0,5,3.1,7.5,6,7.5c2.8,0,4.9-1.1,5.8-4.1c0.1-0.2,0.2-0.3,0.4-0.3H245.1z"/>
		<path class="st35" d="M261.8,43.4c0,0.2-0.1,0.3-0.3,0.3h-3.1c-0.2,0-0.3-0.1-0.3-0.3v-1.1c-1.3,1-2.7,1.7-4.6,1.7
			c-3.3,0-5.4-2-5.4-5.2V28.6c0-0.2,0.1-0.3,0.3-0.3h3.1c0.2,0,0.3,0.1,0.3,0.3v8.9c0,2.3,0.9,3.2,2.6,3.2c1.9,0,3.7-1.5,3.7-5.1
			v-6.9c0-0.2,0.1-0.3,0.3-0.3h3.1c0.2,0,0.3,0.1,0.3,0.3V43.4z"/>
		<path class="st35" d="M271.1,44c-3.9,0-6.5-2.1-6.7-5.4c0-0.2,0.1-0.3,0.3-0.3h3.1c0.2,0,0.3,0.1,0.3,0.3c0.3,1.5,1.6,2.1,3.2,2.1
			c1.5,0,2.7-0.5,2.7-1.5c0-0.9-1-1.5-3.9-2c-3.7-0.6-5.4-2.1-5.4-4.4c0-3.5,3.2-4.8,6.1-4.8c3.7,0,6.2,2,6.4,4.7
			c0,0.2-0.1,0.3-0.3,0.3h-3.1c-0.2,0-0.3-0.1-0.4-0.3c-0.4-0.9-1.3-1.5-2.7-1.5c-1.2,0-2.3,0.5-2.3,1.5c0,0.8,0.6,1.4,3.7,1.9
			c3.4,0.6,5.5,1.7,5.5,4.5C277.6,42,274.9,44,271.1,44z"/>
		<path class="st35" d="M290.1,28.3c0.2,0,0.3,0.1,0.3,0.3v2.7c0,0.2-0.1,0.3-0.3,0.3h-4.6v6.5c0,1.7,0.6,2.5,2.1,2.5
			c0.9,0,1.6-0.1,2.7-0.5c0.1,0,0.2,0,0.2,0c0.2,0,0.2,0.1,0.2,0.3V43c0,0.3,0,0.4-0.2,0.5c-0.9,0.3-2.4,0.5-3.5,0.5
			c-2.9,0-5.1-1.7-5.1-5.1v-7.2h-2.6c-0.2,0-0.3-0.1-0.3-0.3v-2.7c0-0.2,0.1-0.3,0.3-0.3h2.6v-4.4c0-0.2,0.1-0.3,0.3-0.3h3.1
			c0.2,0,0.3,0.1,0.3,0.3v4.4H290.1z"/>
		<path class="st35" d="M300.3,28c4.7,0,8.2,3.3,8.2,8s-3.5,8-8.2,8c-4.7,0-8.2-3.3-8.2-8S295.6,28,300.3,28z M300.3,40.7
			c2.5,0,4.3-1.9,4.3-4.7s-1.7-4.7-4.3-4.7c-2.5,0-4.3,1.9-4.3,4.7S297.7,40.7,300.3,40.7z"/>
		<path class="st35" d="M311.2,28.6c0-0.2,0.1-0.3,0.3-0.3h3.1c0.2,0,0.3,0.1,0.3,0.3v1.1c1-1,2.4-1.7,3.8-1.7
			c1.8,0,2.9,0.6,3.8,1.9c1.4-1.3,2.8-1.9,4.7-1.9c3.2,0,4.7,2,4.7,5.4v10c0,0.2-0.1,0.3-0.3,0.3h-3.1c-0.2,0-0.3-0.1-0.3-0.3v-9.5
			c0-2-0.7-2.6-1.9-2.6c-1.9,0-2.9,1.8-2.9,5.2v6.8c0,0.2-0.1,0.3-0.3,0.3h-3.1c-0.2,0-0.3-0.1-0.3-0.3v-9.3c0-2.1-0.6-2.8-2-2.8
			c-1.7,0-2.8,1.6-2.8,5.2v6.8c0,0.2-0.1,0.3-0.3,0.3h-3.1c-0.2,0-0.3-0.1-0.3-0.3V28.6z"/>
		<path class="st35" d="M346.1,38.8c0.2-0.2,0.2-0.3,0.4-0.3h3.1c0.2,0,0.2,0.1,0.2,0.2c0,0.1,0,0.1-0.1,0.3c-1.3,3.4-3.8,5-7.5,5
			c-4.4,0-7.9-3.2-7.9-8s3.5-8,7.9-8c5,0,7.9,3.9,7.9,8.3v0.5c0,0.2-0.1,0.3-0.3,0.3h-11.7c0.3,2,1.8,3.5,4,3.5
			C344.1,40.7,345.3,40.1,346.1,38.8z M338.4,34.1h7.9c-0.6-1.7-1.8-2.8-4-2.8C340.6,31.3,339.1,32.4,338.4,34.1z"/>
		<path class="st35" d="M363.7,31.9c0,0.2-0.1,0.3-0.2,0.3c0,0-0.1,0-0.2-0.1c-1.3-0.6-2.2-0.9-3.2-0.9c-1.9,0-3.3,0.9-3.3,4.1v7.9
			c0,0.2-0.1,0.3-0.3,0.3h-3.1c-0.2,0-0.3-0.1-0.3-0.3V28.6c0-0.2,0.1-0.3,0.3-0.3h3.1c0.2,0,0.3,0.1,0.3,0.3v0.8
			c0.9-0.9,2.2-1.4,3.8-1.4c1,0,1.9,0.2,2.8,0.5c0.3,0.1,0.4,0.2,0.4,0.5V31.9z"/>
		<path class="st35" d="M392.5,36c0.2,0,0.3,0.1,0.3,0.3c-0.6,4.7-4.6,7.7-9.6,7.7c-4.8,0-10-3.3-10-11c0-7.7,5.1-11,10-11
			c5,0,9,2.9,9.6,7.7c0,0.2-0.1,0.3-0.3,0.3h-3.1c-0.2,0-0.3-0.1-0.4-0.3c-0.9-3-3-4.1-5.8-4.1c-2.9,0-6,2.4-6,7.5
			c0,5,3.1,7.5,6,7.5c2.8,0,4.9-1.1,5.8-4.1c0.1-0.2,0.2-0.3,0.4-0.3H392.5z"/>
		<path class="st35" d="M403,28c4.7,0,8.2,3.3,8.2,8s-3.5,8-8.2,8s-8.2-3.3-8.2-8S398.3,28,403,28z M403,40.7c2.5,0,4.3-1.9,4.3-4.7
			s-1.7-4.7-4.3-4.7s-4.3,1.9-4.3,4.7S400.5,40.7,403,40.7z"/>
		<path class="st35" d="M414.1,28.6c0-0.2,0.1-0.3,0.3-0.3h3.1c0.2,0,0.3,0.1,0.3,0.3v1.1c1.3-1,2.7-1.7,4.6-1.7
			c3.3,0,5.4,2,5.4,5.2v10.2c0,0.2-0.1,0.3-0.3,0.3h-3.1c-0.2,0-0.3-0.1-0.3-0.3v-8.9c0-2.3-0.9-3.2-2.6-3.2c-1.9,0-3.7,1.5-3.7,5.1
			v6.9c0,0.2-0.1,0.3-0.3,0.3h-3.1c-0.2,0-0.3-0.1-0.3-0.3V28.6z"/>
		<path class="st35" d="M436.2,31.6v11.7c0,0.2-0.1,0.3-0.3,0.3h-3.1c-0.2,0-0.3-0.1-0.3-0.3V31.6h-2.4c-0.2,0-0.3-0.1-0.3-0.3v-2.7
			c0-0.2,0.1-0.3,0.3-0.3h2.4V27c0-3.2,1.9-5,5-5c1.1,0,2.3,0.2,3.2,0.6c0.2,0.1,0.2,0.2,0.2,0.5v2.6c0,0.2-0.1,0.2-0.2,0.2
			c-0.1,0-0.1,0-0.2-0.1c-1-0.5-1.7-0.7-2.5-0.7c-1.2,0-1.8,0.7-1.8,2v1h4.2c0.2,0,0.3,0.1,0.3,0.3v2.7c0,0.2-0.1,0.3-0.3,0.3H436.2
			z"/>
		<path class="st35" d="M453.5,38.8c0.2-0.2,0.2-0.3,0.4-0.3h3.1c0.2,0,0.2,0.1,0.2,0.2c0,0.1,0,0.1-0.1,0.3c-1.3,3.4-3.8,5-7.5,5
			c-4.4,0-7.9-3.2-7.9-8s3.5-8,7.9-8c5,0,7.9,3.9,7.9,8.3v0.5c0,0.2-0.1,0.3-0.3,0.3h-11.7c0.3,2,1.8,3.5,4,3.5
			C451.5,40.7,452.7,40.1,453.5,38.8z M445.8,34.1h7.9c-0.6-1.7-1.8-2.8-4-2.8C448,31.3,446.4,32.4,445.8,34.1z"/>
		<path class="st35" d="M471.1,31.9c0,0.2-0.1,0.3-0.2,0.3c0,0-0.1,0-0.2-0.1c-1.3-0.6-2.2-0.9-3.2-0.9c-1.9,0-3.3,0.9-3.3,4.1v7.9
			c0,0.2-0.1,0.3-0.3,0.3h-3.1c-0.2,0-0.3-0.1-0.3-0.3V28.6c0-0.2,0.1-0.3,0.3-0.3h3.1c0.2,0,0.3,0.1,0.3,0.3v0.8
			c0.9-0.9,2.2-1.4,3.8-1.4c1,0,1.9,0.2,2.8,0.5c0.3,0.1,0.4,0.2,0.4,0.5V31.9z"/>
		<path class="st35" d="M484.1,38.8c0.2-0.2,0.2-0.3,0.4-0.3h3.1c0.2,0,0.2,0.1,0.2,0.2c0,0.1,0,0.1-0.1,0.3c-1.3,3.4-3.8,5-7.5,5
			c-4.4,0-7.9-3.2-7.9-8s3.5-8,7.9-8c5,0,7.9,3.9,7.9,8.3v0.5c0,0.2-0.1,0.3-0.3,0.3h-11.7c0.3,2,1.8,3.5,4,3.5
			C482.1,40.7,483.3,40.1,484.1,38.8z M476.4,34.1h7.9c-0.6-1.7-1.8-2.8-4-2.8C478.5,31.3,477,32.4,476.4,34.1z"/>
		<path class="st35" d="M491.2,28.6c0-0.2,0.1-0.3,0.3-0.3h3.1c0.2,0,0.3,0.1,0.3,0.3v1.1c1.3-1,2.7-1.7,4.6-1.7
			c3.3,0,5.4,2,5.4,5.2v10.2c0,0.2-0.1,0.3-0.3,0.3h-3.1c-0.2,0-0.3-0.1-0.3-0.3v-8.9c0-2.3-0.9-3.2-2.6-3.2c-1.9,0-3.7,1.5-3.7,5.1
			v6.9c0,0.2-0.1,0.3-0.3,0.3h-3.1c-0.2,0-0.3-0.1-0.3-0.3V28.6z"/>
		<path class="st35" d="M511.2,36c0,3,1.7,4.7,4.1,4.7c1.7,0,3.1-0.8,3.6-2.4c0.1-0.2,0.2-0.3,0.4-0.3h3c0.1,0,0.2,0.1,0.2,0.2
			c0,0.1,0,0.2,0,0.3c-0.5,2.9-3.2,5.5-7.2,5.5c-4.6,0-8-3.2-8-8c0-4.8,3.5-8,8-8c4,0,6.7,2.5,7.2,5.5c0,0.1,0,0.2,0,0.3
			c0,0.1-0.1,0.2-0.2,0.2h-3c-0.2,0-0.3,0-0.4-0.3c-0.6-1.6-1.9-2.4-3.6-2.4C512.9,31.3,511.2,33,511.2,36z"/>
		<path class="st35" d="M536.3,38.8c0.2-0.2,0.2-0.3,0.4-0.3h3.1c0.2,0,0.2,0.1,0.2,0.2c0,0.1,0,0.1-0.1,0.3c-1.3,3.4-3.8,5-7.5,5
			c-4.4,0-7.9-3.2-7.9-8s3.5-8,7.9-8c5,0,7.9,3.9,7.9,8.3v0.5c0,0.2-0.1,0.3-0.3,0.3h-11.7c0.3,2,1.8,3.5,4,3.5
			C534.3,40.7,535.5,40.1,536.3,38.8z M528.7,34.1h7.9c-0.6-1.7-1.8-2.8-4-2.8C530.8,31.3,529.3,32.4,528.7,34.1z"/>
	</g>
	<g>
		<path class="st35" d="M173.2,79c0-0.3,0.1-0.5,0.3-0.7l8.7-8.4c1.6-1.6,2-3,2-4.8c0-2.2-1.5-3.9-4.1-3.9c-2.8,0-4.3,1.9-4.3,4.1
			c0,0.4-0.1,0.5-0.4,0.5h-1.7c-0.2,0-0.4-0.1-0.4-0.5c0.1-3.6,2.6-6.5,6.8-6.5c4,0,6.6,2.6,6.6,6.2c0,2.8-0.9,4.7-2.8,6.5l-7,6.7
			H187c0.2,0,0.3,0.1,0.3,0.3v1.8c0,0.2-0.1,0.3-0.3,0.3h-13.5c-0.2,0-0.3-0.1-0.3-0.3V79z"/>
		<path class="st35" d="M191.6,79c0-0.3,0.1-0.5,0.3-0.7l8.7-8.4c1.6-1.6,2-3,2-4.8c0-2.2-1.5-3.9-4.1-3.9c-2.8,0-4.3,1.9-4.3,4.1
			c0,0.4-0.1,0.5-0.4,0.5H192c-0.2,0-0.4-0.1-0.4-0.5c0.1-3.6,2.6-6.5,6.8-6.5c4,0,6.6,2.6,6.6,6.2c0,2.8-0.9,4.7-2.8,6.5l-7,6.7
			h10.1c0.2,0,0.3,0.1,0.3,0.3v1.8c0,0.2-0.1,0.3-0.3,0.3h-13.5c-0.2,0-0.3-0.1-0.3-0.3V79z"/>
		<path class="st35" d="M209.9,65.5c0-0.2,0.1-0.3,0.3-0.3h1.8c0.2,0,0.3,0.1,0.3,0.3v1.7c1.2-1.4,2.9-2.4,5.1-2.4
			c3.2,0,5.3,2,5.3,5.6v9.8c0,0.2-0.1,0.3-0.3,0.3h-1.8c-0.2,0-0.3-0.1-0.3-0.3v-9.4c0-2.5-1.3-3.7-3.5-3.7c-2.6,0-4.5,1.9-4.5,5.6
			v7.5c0,0.2-0.1,0.3-0.3,0.3h-1.8c-0.2,0-0.3-0.1-0.3-0.3V65.5z"/>
		<path class="st35" d="M240.5,80.2c0,0.2-0.1,0.3-0.3,0.3h-1.8c-0.2,0-0.3-0.1-0.3-0.3v-1.4c-1.1,1.2-2.9,2-5,2
			c-4.1,0-6.9-3.2-6.9-8s2.7-8,6.9-8c2.1,0,3.8,0.9,5,2.1v-7.5c0-0.2,0.1-0.3,0.3-0.3h1.8c0.2,0,0.3,0.1,0.3,0.3V80.2z M233.5,67.1
			c-3.1,0-4.7,2.4-4.7,5.7s1.6,5.7,4.7,5.7c3,0,4.9-2.4,4.9-5.7S236.5,67.1,233.5,67.1z"/>
		<path class="st35" d="M264.5,68.9c0.2,0,0.3,0.1,0.3,0.3V71c0,0.2-0.1,0.3-0.3,0.3h-11.1c-0.2,0-0.3-0.1-0.3-0.3v-1.8
			c0-0.2,0.1-0.3,0.3-0.3H264.5z"/>
		<path class="st35" d="M277,79c0-0.3,0.1-0.5,0.3-0.7l8.7-8.4c1.6-1.6,2-3,2-4.8c0-2.2-1.5-3.9-4.1-3.9c-2.8,0-4.3,1.9-4.3,4.1
			c0,0.4-0.1,0.5-0.4,0.5h-1.7c-0.2,0-0.4-0.1-0.4-0.5c0.1-3.6,2.6-6.5,6.8-6.5c4,0,6.6,2.6,6.6,6.2c0,2.8-0.9,4.7-2.8,6.5l-7,6.7
			h10.1c0.2,0,0.3,0.1,0.3,0.3v1.8c0,0.2-0.1,0.3-0.3,0.3h-13.5c-0.2,0-0.3-0.1-0.3-0.3V79z"/>
		<path class="st35" d="M304,76.1h-9.4c-0.2,0-0.3-0.1-0.3-0.3v-1.1c0-0.3,0.1-0.5,0.2-0.7l9.8-14.6c0.1-0.2,0.2-0.2,0.4-0.2h1.5
			c0.2,0,0.3,0.1,0.3,0.3v14.3h3c0.2,0,0.3,0.1,0.3,0.3v1.8c0,0.2-0.1,0.3-0.3,0.3h-3v4.1c0,0.2-0.1,0.3-0.3,0.3h-1.9
			c-0.2,0-0.3-0.1-0.3-0.3V76.1z M297.5,73.8h6.5v-9.7L297.5,73.8z"/>
		<path class="st35" d="M322.8,65.2c0.2,0,0.3,0.1,0.3,0.3v1.7c0,0.2-0.1,0.3-0.3,0.3h-5.1V76c0,1.7,0.8,2.6,2.4,2.6
			c1,0,1.8-0.1,2.9-0.5c0.1,0,0.2-0.1,0.2-0.1c0.2,0,0.2,0.1,0.2,0.3v1.4c0,0.3,0,0.4-0.2,0.5c-0.9,0.3-2,0.5-3.3,0.5
			c-2.9,0-4.6-1.7-4.6-4.7v-8.8h-2.7c-0.2,0-0.3-0.1-0.3-0.3v-1.7c0-0.2,0.1-0.3,0.3-0.3h2.7v-4.4c0-0.2,0.1-0.3,0.3-0.3h1.8
			c0.2,0,0.3,0.1,0.3,0.3v4.4H322.8z"/>
		<path class="st35" d="M326.6,59.4c0-0.2,0.1-0.3,0.3-0.3h1.8c0.2,0,0.3,0.1,0.3,0.3v8c1.3-1.5,3.4-2.6,5.4-2.6
			c3.2,0,5.3,1.9,5.3,5.3v10.1c0,0.2-0.1,0.3-0.3,0.3h-1.8c-0.2,0-0.3-0.1-0.3-0.3v-9.5c0-2.4-1.3-3.6-3.6-3.6c-2.4,0-4.7,2-4.7,5.5
			v7.6c0,0.2-0.1,0.3-0.3,0.3h-1.8c-0.2,0-0.3-0.1-0.3-0.3V59.4z"/>
		<path class="st35" d="M371.8,80.2c0,0.2-0.1,0.3-0.3,0.3h-2c-0.2,0-0.3-0.1-0.3-0.3V63.1l-6,13.6c-0.1,0.2-0.2,0.3-0.4,0.3h-1.3
			c-0.2,0-0.3-0.1-0.4-0.3l-6-13.6v17.1c0,0.2-0.1,0.3-0.3,0.3h-2c-0.2,0-0.3-0.1-0.3-0.3V59.4c0-0.2,0.1-0.3,0.3-0.3h2.9
			c0.2,0,0.4,0.1,0.5,0.3l5.9,13.6l5.9-13.6c0.1-0.2,0.3-0.3,0.5-0.3h2.9c0.2,0,0.3,0.1,0.3,0.3V80.2z"/>
		<path class="st35" d="M376.3,69.7c-0.1,0-0.2-0.1-0.2-0.2c0-0.1,0-0.2,0-0.3c0.6-2.3,2.6-4.4,6.2-4.4c3.5,0,6.1,2.1,6.1,5.4v7.4
			c0,1.5,0.1,1.9,0.5,2.6c0,0.1,0.1,0.1,0.1,0.2c0,0.1-0.1,0.2-0.2,0.2h-2.4c-0.2,0-0.3-0.1-0.3-0.3v-1.6c-1,1.3-2.8,2.2-5,2.2
			c-2.7,0-5.5-1.6-5.5-4.9c0-3.4,2.8-5.1,6.2-5.1c1.5,0,3,0.3,4.3,0.7v-0.9c0-2.3-1.3-3.5-3.7-3.5c-1.8,0-3,0.9-3.6,2.3
			c-0.1,0.2-0.2,0.3-0.4,0.3H376.3z M381.9,73.1c-2.2,0-3.9,0.8-3.9,2.7c0,1.8,1.2,2.8,3.3,2.8c2.6,0,4.7-1.7,4.7-4.8
			C384.8,73.4,383.5,73.1,381.9,73.1z"/>
		<path class="st35" d="M393.4,65.5l4.5,11.7l3.9-11.7c0.1-0.2,0.1-0.3,0.4-0.3h2.1c0.2,0,0.2,0.1,0.2,0.2c0,0.1,0,0.1,0,0.2
			L398.9,82c-1.3,3.8-3,4.9-5.3,4.9c-1,0-1.6-0.2-2.3-0.5c-0.3-0.2-0.3-0.3-0.3-0.5v-1.7c0-0.2,0.1-0.3,0.2-0.3
			c0.5,0,0.8,0.7,2.2,0.7c1.6,0,2.5-1.2,3.2-3.9l-6.1-15.1c0-0.1-0.1-0.2-0.1-0.2c0-0.2,0.1-0.2,0.2-0.2h2.2
			C393.3,65.2,393.4,65.3,393.4,65.5z"/>
		<path class="st35" d="M415.3,79c0-0.3,0.1-0.5,0.3-0.7l8.7-8.4c1.6-1.6,2-3,2-4.8c0-2.2-1.5-3.9-4.1-3.9c-2.8,0-4.3,1.9-4.3,4.1
			c0,0.4-0.1,0.5-0.4,0.5h-1.7c-0.2,0-0.4-0.1-0.4-0.5c0.1-3.6,2.6-6.5,6.8-6.5c4,0,6.6,2.6,6.6,6.2c0,2.8-0.9,4.7-2.8,6.5l-7,6.7
			h10.1c0.2,0,0.3,0.1,0.3,0.3v1.8c0,0.2-0.1,0.3-0.3,0.3h-13.5c-0.2,0-0.3-0.1-0.3-0.3V79z"/>
		<path class="st35" d="M440.7,58.8c4.4,0,8.1,3.6,8.1,11c0,7.4-3.6,11-8.1,11s-8.1-3.6-8.1-11C432.7,62.4,436.3,58.8,440.7,58.8z
			 M440.7,78.5c3.1,0,5.5-2.3,5.5-8.6c0-6.4-2.4-8.6-5.5-8.6s-5.5,2.3-5.5,8.6C435.2,76.2,437.7,78.5,440.7,78.5z"/>
		<path class="st35" d="M456.5,62.5l-4.1,2.2c-0.1,0.1-0.2,0.1-0.3,0.1c-0.1,0-0.2-0.1-0.2-0.3v-2.1c0-0.2,0.2-0.4,0.3-0.5l5-2.7
			c0.2-0.1,0.3-0.2,0.5-0.2h1.1c0.2,0,0.3,0.1,0.3,0.3v20.8c0,0.2-0.1,0.3-0.3,0.3h-1.9c-0.2,0-0.3-0.1-0.3-0.3V62.5z"/>
		<path class="st35" d="M471.3,58.8c3.4,0,6.4,2.1,6.4,5.7c0,2.3-1,3.7-2.6,4.7c1.8,0.9,3.2,2.5,3.2,5.3c0,3.7-2.9,6.4-7.1,6.4
			c-4.1,0-7.1-2.7-7.1-6.4c0-2.8,1.4-4.4,3.2-5.3c-1.6-1-2.6-2.4-2.6-4.7C464.9,60.9,467.9,58.8,471.3,58.8z M471.3,78.5
			c2.8,0,4.6-1.4,4.6-4c0-2.5-1.8-4-4.6-4c-2.8,0-4.6,1.5-4.6,4C466.7,77,468.5,78.5,471.3,78.5z M471.3,68.1c2.5,0,4-1.5,4-3.5
			c0-2.2-1.7-3.4-4-3.4c-2.3,0-4,1.3-4,3.4C467.3,66.7,468.8,68.1,471.3,68.1z"/>
	</g>
</g>
</svg>
