<?xml version="1.0" encoding="utf-8"?>
<!-- Generator: Adobe Illustrator 16.0.0, SVG Export Plug-In . SVG Version: 6.00 Build 0)  -->
<!DOCTYPE svg PUBLIC "-//W3C//DTD SVG 1.1//EN" "http://www.w3.org/Graphics/SVG/1.1/DTD/svg11.dtd">
<svg version="1.1" id="Layer_1" xmlns="http://www.w3.org/2000/svg" xmlns:xlink="http://www.w3.org/1999/xlink" x="0px" y="0px"
	 width="612px" height="792px" viewBox="0 0 612 792" enable-background="new 0 0 612 792" xml:space="preserve">
<symbol  id="copter" viewBox="-135.55 -43.95 271.1 87.9">
	<g id="Layer_1_1_">
		<path fill="#565656" d="M135.55,39.851c0-0.5-0.2-1-0.5-1.301c-0.4-0.399-0.8-0.6-1.3-0.6h-198.3c-0.5,0-0.9,0.2-1.3,0.6
			c-0.4,0.301-0.5,0.801-0.5,1.301s0.2,0.899,0.5,1.3c0.4,0.399,0.8,0.5,1.3,0.5h198.3c0.5,0,0.9-0.2,1.3-0.5
			C135.35,40.75,135.55,40.351,135.55,39.851z"/>
		<polygon points="32.05,22.351 36.85,22.351 36.85,37.45 32.05,37.45 		"/>
		<path fill="#0099CC" d="M24.55,4.45c0.2-1.8,1-3.4,2.4-4.7c1.6-1.6,3.6-2.5,5.9-2.5h6.8c2.3,0,4.3,0.8,5.9,2.5s2.4,3.601,2.4,5.9
			c0,1.3-0.3,2.6-0.8,3.7c-0.2,1.8-1,3.399-2.4,4.699c-1.6,1.601-3.6,2.5-5.9,2.5h-6.8c-2.3,0-4.3-0.8-5.9-2.5
			c-1.6-1.6-2.4-3.6-2.4-5.899C23.75,6.75,24.05,5.55,24.55,4.45z M50.75-11.45h-29.4v25.7l4.1,4.101h19l6.4-6.4v-23.4H50.75z"/>
		<path fill="#3F3F3F" d="M82.85,2.55h-27.1V13.65h16.1L82.85,2.55L82.85,2.55z M47.15,9.25c0.5-1.1,0.8-2.3,0.8-3.7
			c0-2.3-0.8-4.3-2.4-5.899c-1.6-1.601-3.6-2.5-5.9-2.5h-6.8c-2.3,0-4.3,0.8-5.9,2.5c-1.4,1.399-2.1,2.899-2.4,4.7
			c0,0.399-0.1,0.8-0.1,1.199c0,2.301,0.8,4.301,2.4,5.9c1.6,1.6,3.6,2.5,5.9,2.5h6.8c2.3,0,4.3-0.8,5.9-2.5
			C46.15,10.851,46.75,10.05,47.15,9.25z"/>
		<polygon fill="#001820" points="54.45,-31.649 54.45,-42.05 74.45,-42.05 77.45,-38.95 78.95,-40.45 75.35,-43.95 -2.05,-43.95 
			-2.05,-42.05 17.85,-42.05 17.85,-31.649 19.55,-31.649 19.55,-42.05 52.65,-42.05 52.65,-31.649 		"/>
		<path fill="#003446" d="M-111.25,7.95c0-0.8-0.3-1.5-0.9-2.1c-0.6-0.601-1.3-0.9-2.1-0.9c-0.8,0-1.5,0.3-2.1,0.9
			c-0.6,0.6-0.8,1.3-0.8,2.1s0.3,1.5,0.9,2.1c0.5,0.601,1.2,0.9,2,0.9c0.8,0,1.5-0.3,2.1-0.9C-111.55,9.45-111.25,8.75-111.25,7.95z
			"/>
		<path fill="#202020" d="M70.55,14.851l1.2-1.2h-16.1V2.55h-1.4v12.301H70.55z M47.15,9.25c-0.4,0.8-0.9,1.5-1.6,2.2
			c-1.6,1.6-3.6,2.5-5.9,2.5h-6.8c-2.3,0-4.3-0.8-5.9-2.5c-1.6-1.6-2.4-3.6-2.4-5.9c0-0.399,0-0.8,0.1-1.199
			c-0.5,1.1-0.8,2.3-0.8,3.699c0,2.301,0.8,4.301,2.4,5.9c1.6,1.6,3.6,2.5,5.9,2.5h6.8c2.3,0,4.3-0.8,5.9-2.5
			C46.15,12.65,46.85,11.05,47.15,9.25z"/>
		<polygon fill="#ECECEC" points="21.35,-11.45 21.35,-20.55 20.55,-20.55 20.55,-11.45 20.55,14.45 25.25,19.15 44.95,19.15 
			51.55,12.55 51.55,-11.45 51.55,-20.55 50.75,-20.55 50.75,-11.45 50.75,12.05 44.45,18.45 25.45,18.45 21.35,14.351 		"/>
		<path fill="#DD4E42" d="M82.85,2.55c5.1-4.699,7.6-9.399,7.4-14h-38.7v24l-6.6,6.601h-19.7l-4.7-4.7v-25.9H0.65v17.5v9.5
			l6.8,6.801h24.6l0,0h4.8l0,0h26.2l7.5-7.5h-16.3V2.55h1.4H82.85z"/>
		<path fill="#FFCD44" d="M21.35-11.45h29.4v-9.1h0.8v9.1h38.7c0-0.399,0-0.8-0.1-1.1c-0.4-2.7-1.7-5.3-3.9-8
			c-2.1-2.4-4.9-4.9-8.6-7.3H0.75v12.8v3.5h19.9v-9.1h0.8v9.199H21.35z M21.35-20.55h29.4H21.35z"/>
		<path fill="#1EA362" d="M-117.85,2.75l-6.1,23.2h8.4l8.8-19.9h104l-1.4-14.1L-117.85,2.75z M-111.25,7.95c0,0.8-0.3,1.5-0.9,2.1
			c-0.6,0.601-1.3,0.9-2.1,0.9c-0.8,0-1.5-0.3-2.1-0.9c-0.6-0.6-0.8-1.3-0.8-2.1s0.3-1.5,0.9-2.1c0.5-0.601,1.2-0.9,2-0.9
			c0.8,0,1.5,0.3,2.1,0.9C-111.55,6.45-111.25,7.15-111.25,7.95z"/>
		<polygon fill="#18834E" points="0.65,-14.95 -116.95,-0.35 -117.85,2.75 -4.15,-8.05 -2.85,6.05 0.65,6.05 0.65,-11.45 		"/>
		<path fill="#C9A135" d="M52.65-31.649h-33.1h-1.8H0.65v3.899h76.9c-2-1.3-4.2-2.6-6.6-3.899h-16.5H52.65z"/>
		<path fill="none" stroke="#FFFFFF" stroke-linecap="round" stroke-linejoin="round" stroke-miterlimit="3" d="M55.65,2.55h27.1
			 M47.15,9.25c-0.2,1.8-1,3.4-2.4,4.7c-1.6,1.6-3.6,2.5-5.9,2.5h-6.8c-2.3,0-4.3-0.8-5.9-2.5c-1.6-1.6-2.4-3.6-2.4-5.9
			c0-1.3,0.3-2.6,0.8-3.699c0.2-1.801,1-3.4,2.4-4.7c1.6-1.601,3.6-2.5,5.9-2.5h6.8c2.3,0,4.3,0.8,5.9,2.5s2.4,3.6,2.4,5.899
			C47.95,6.95,47.65,8.15,47.15,9.25z M70.55,14.851h-16.3V2.55h1.4 M21.35-11.45v25.7l4.1,4.101h19l6.4-6.4v-23.5v-9.1
			 M21.35-20.55v9.1 M21.35-20.55h29.4"/>
	</g>
	<g id="Layer_2_1_">
		<path fill="#CCCCCC" fill-opacity="0.4" d="M-99.15,23.05c4.2-4.199,6.2-9.199,6.2-15.1s-2-10.9-6.2-15c-4.1-4.2-9.2-6.3-15.1-6.3
			c-5.9,0-10.9,2.1-15.1,6.3c-4.1,4.1-6.2,9.1-6.2,15s2.1,10.9,6.2,15.1c4.2,4.101,9.2,6.2,15.1,6.2
			C-108.35,29.25-103.25,27.15-99.15,23.05z"/>
	</g>
	<g id="Layer_3_1_">
		<path fill="#005E7E" d="M40.05,42.45h-11.4v1.5h11.4V42.45z M40.05,36.15h-11.4v1.5h11.4V36.15z"/>
	</g>
	<g id="Layer_5_2_">
		<path fill="#005E7E" d="M38.35,36.95h-0.6v6.1h0.6V36.95z M34.85,43.05v-6.1h-0.6v6.1H34.85z M31.35,43.05v-6.1h-0.6v6.1H31.35z"
			/>
	</g>
</symbol>
<g id="Background_colour_x2F_objects">
</g>
<g id="Road">
</g>
<g id="Layer_1_3_">
	<g id="tree01_1_">
		<g id="Layer_2_3_">
		</g>
		<g id="Layer_1_7_">
		</g>
	</g>
	<g id="tree01">
		<g id="Layer_2">
		</g>
		<g id="Layer_1_5_">
		</g>
	</g>
	<g id="uber_x5F_cab">
		<g id="Layer_1_2_">
			<g id="taxi002">
				<g id="Layer_1_4_">
				</g>
			</g>
		</g>
	</g>
	<g id="glass_x5F_parachutes">
		<g id="Layer_1_14_">
		</g>
		<g id="Layer_3">
		</g>
		<g id="Layer_2_2_">
		</g>
		<g id="Layer_4_1_">
		</g>
	</g>
	<g>
		<g>
			<g>
				<path fill="none" stroke="#E00034" stroke-width="121.5302" stroke-miterlimit="10" d="M3.862,228.671
					c91.139,5.985,244.453,0,306.337-3.283c58.989-3.089,110.834-3.282,133.619-3.282c22.784,0,166.251,4.827,166.251,4.827"/>
				<g>
					<g>
						
							<line fill="none" stroke="#444444" stroke-width="4.6917" stroke-linecap="round" stroke-miterlimit="10" x1="15.254" y1="175.571" x2="15.254" y2="175.571"/>
						
							<line fill="none" stroke="#444444" stroke-width="4.6917" stroke-linecap="round" stroke-miterlimit="10" stroke-dasharray="0,9.4756" x1="24.04" y1="172.868" x2="272.451" y2="93.604"/>
						
							<line fill="none" stroke="#444444" stroke-width="4.6917" stroke-linecap="round" stroke-miterlimit="10" x1="276.795" y1="92.252" x2="276.795" y2="92.252"/>
					</g>
				</g>
				<g>
					<path fill="#FFFFFF" d="M53.196,197.004l-4.344,2.413c-0.193,0.097-0.29,0.097-0.386,0.097c-0.193,0-0.29-0.097-0.29-0.289
						v-3.959c0-0.289,0.193-0.482,0.386-0.579l6.083-3.282c0.193-0.097,0.386-0.193,0.579-0.193h2.028
						c0.29,0,0.386,0.097,0.386,0.386v24.909c0,0.29-0.097,0.386-0.386,0.386h-3.766c-0.29,0-0.386-0.096-0.386-0.386v-19.502
						H53.196z"/>
					<path fill="#FFFFFF" d="M64.203,191.694c0-0.289,0.097-0.386,0.386-0.386h14.385c0.29,0,0.386,0.097,0.386,0.386v3.572
						c0,0.29-0.097,0.387-0.386,0.387h-10.62l-0.869,5.503c1.545-0.772,2.993-1.158,5.021-1.158c5.021,0,8.207,2.992,8.207,8.592
						c0,5.89-3.958,8.786-9.172,8.786s-8.689-3.09-9.075-7.917c0-0.386,0.193-0.579,0.482-0.579h3.572
						c0.29,0,0.386,0.097,0.483,0.579c0.579,2.606,2.414,3.669,4.827,3.669c2.607,0,4.441-1.545,4.441-4.345
						c0-2.703-1.834-4.345-4.634-4.345c-1.834,0-3.283,0.483-4.828,1.642c-0.193,0.193-0.29,0.289-0.579,0.289h-3.089
						c-0.29,0-0.386-0.192-0.386-0.386L64.203,191.694z"/>
					<path fill="#FFFFFF" d="M84.96,191.694c0-0.289,0.096-0.386,0.386-0.386h3.668c0.29,0,0.386,0.097,0.386,0.386v8.304
						c1.545-1.256,3.283-1.835,5.31-1.835c4.924,0,8.303,3.669,8.303,9.558c0,5.89-3.379,9.559-8.303,9.559
						c-2.221,0-3.862-0.772-5.31-1.834v1.158c0,0.289-0.097,0.386-0.386,0.386h-3.668c-0.29,0-0.386-0.097-0.386-0.386V191.694z
						 M93.746,213.32c2.896,0,4.634-2.413,4.634-5.6c0-3.186-1.738-5.6-4.634-5.6c-2.896,0-4.634,2.414-4.634,5.6
						C89.111,210.907,90.849,213.32,93.746,213.32z"/>
					<path fill="#FFFFFF" d="M119.716,211.1c0.193-0.29,0.29-0.29,0.483-0.29h3.765c0.193,0,0.29,0.097,0.29,0.29
						c0,0.097,0,0.192-0.097,0.386c-1.545,4.055-4.538,5.89-8.979,5.89c-5.31,0-9.365-3.862-9.365-9.559s4.248-9.558,9.461-9.558
						c5.986,0,9.461,4.634,9.461,9.944v0.579c0,0.29-0.097,0.386-0.386,0.386h-13.902c0.386,2.414,2.124,4.248,4.827,4.248
						C117.302,213.32,118.75,212.644,119.716,211.1z M110.544,205.5h9.461c-0.676-1.932-2.221-3.38-4.828-3.38
						C113.151,202.121,111.22,203.376,110.544,205.5z"/>
					<path fill="#FFFFFF" d="M127.826,191.694c0-0.289,0.097-0.386,0.386-0.386h3.669c0.29,0,0.386,0.097,0.386,0.386v24.909
						c0,0.289-0.097,0.386-0.386,0.386h-3.669c-0.29,0-0.386-0.097-0.386-0.386V191.694z"/>
					<path fill="#FFFFFF" d="M145.204,198.163c5.6,0,9.848,3.958,9.848,9.558s-4.248,9.559-9.848,9.559s-9.848-3.959-9.848-9.559
						C135.356,202.217,139.604,198.163,145.204,198.163z M145.204,213.32c2.993,0,5.117-2.22,5.117-5.6c0-3.379-2.124-5.6-5.117-5.6
						c-2.993,0-5.117,2.221-5.117,5.6C140.087,211.1,142.115,213.32,145.204,213.32z"/>
					<path fill="#FFFFFF" d="M178.126,216.603c-0.097,0.289-0.29,0.386-0.483,0.386h-3.958c-0.29,0-0.386-0.097-0.482-0.386
						l-3.379-11.199l-3.379,11.199c-0.097,0.289-0.193,0.386-0.483,0.386h-3.958c-0.193,0-0.386-0.097-0.483-0.386l-5.406-17.475
						c0-0.193,0-0.193,0-0.29c0-0.193,0.193-0.289,0.29-0.289h3.765c0.386,0,0.483,0.096,0.483,0.386l3.282,12.357l3.572-11.488
						c0.097-0.29,0.097-0.387,0.386-0.387h3.765c0.29,0,0.29,0.097,0.386,0.387l3.572,11.488l3.283-12.357
						c0.096-0.29,0.193-0.386,0.482-0.386h3.765c0.193,0,0.29,0.096,0.29,0.289c0,0.097,0,0.193,0,0.29L178.126,216.603z"/>
					<path fill="#FFFFFF" d="M217.227,207.72c0.29,0,0.386,0.097,0.386,0.387c-0.676,5.696-5.406,9.172-11.489,9.172
						c-5.793,0-11.972-3.959-11.972-13.227c0-9.269,6.179-13.227,11.972-13.227c5.986,0,10.716,3.476,11.489,9.172
						c0,0.289-0.097,0.386-0.386,0.386h-3.668c-0.193,0-0.386-0.097-0.483-0.386c-1.062-3.572-3.668-4.924-6.951-4.924
						c-3.476,0-7.145,2.896-7.145,8.979c0,6.082,3.669,8.979,7.145,8.979c3.283,0,5.889-1.352,6.951-4.924
						c0.097-0.29,0.193-0.387,0.483-0.387H217.227z"/>
					<path fill="#FFFFFF" d="M237.115,216.603c0,0.289-0.097,0.386-0.386,0.386h-3.669c-0.29,0-0.386-0.097-0.386-0.386v-1.352
						c-1.544,1.255-3.186,2.027-5.503,2.027c-3.958,0-6.372-2.414-6.372-6.179v-12.165c0-0.29,0.097-0.386,0.386-0.386h3.669
						c0.29,0,0.386,0.096,0.386,0.386v10.62c0,2.703,1.159,3.765,3.186,3.765c2.317,0,4.441-1.737,4.441-6.082v-8.303
						c0-0.29,0.096-0.386,0.386-0.386h3.668c0.29,0,0.386,0.096,0.386,0.386v17.668H237.115z"/>
					<path fill="#FFFFFF" d="M248.218,217.279c-4.634,0-7.724-2.511-8.013-6.469c0-0.193,0.096-0.386,0.386-0.386h3.668
						c0.29,0,0.29,0.097,0.386,0.386c0.29,1.738,1.834,2.511,3.765,2.511c1.834,0,3.283-0.58,3.283-1.835
						c0-1.062-1.159-1.737-4.634-2.317c-4.441-0.771-6.372-2.51-6.372-5.31c0-4.151,3.766-5.696,7.241-5.696
						c4.441,0,7.434,2.414,7.724,5.6c0,0.193-0.097,0.387-0.386,0.387h-3.669c-0.29,0-0.386-0.097-0.482-0.387
						c-0.483-1.158-1.545-1.834-3.283-1.834c-1.448,0-2.703,0.579-2.703,1.834c0,0.869,0.772,1.642,4.441,2.317
						c4.055,0.676,6.565,2.027,6.565,5.406C256.038,214.961,252.852,217.279,248.218,217.279z"/>
					<path fill="#FFFFFF" d="M271.099,198.549c0.29,0,0.386,0.096,0.386,0.386v3.186c0,0.29-0.096,0.387-0.386,0.387h-5.6v7.82
						c0,1.931,0.676,2.993,2.51,2.993c1.159,0,1.931-0.097,3.186-0.58c0.097,0,0.193,0,0.29,0c0.193,0,0.29,0.193,0.29,0.29v2.993
						c0,0.289,0,0.482-0.29,0.579c-1.062,0.386-2.8,0.579-4.248,0.579c-3.476,0-6.179-2.124-6.179-6.179v-8.593h-3.186
						c-0.29,0-0.386-0.097-0.386-0.386v-3.09c0-0.29,0.097-0.386,0.386-0.386h3.186v-5.311c0-0.289,0.097-0.386,0.386-0.386h3.669
						c0.29,0,0.386,0.097,0.386,0.386v5.311H271.099z"/>
					<path fill="#FFFFFF" d="M283.167,198.163c5.6,0,9.848,3.958,9.848,9.558s-4.248,9.559-9.848,9.559s-9.848-3.959-9.848-9.559
						C273.319,202.217,277.567,198.163,283.167,198.163z M283.167,213.32c2.993,0,5.117-2.22,5.117-5.6c0-3.379-2.124-5.6-5.117-5.6
						c-2.993,0-5.117,2.221-5.117,5.6C278.05,211.1,280.174,213.32,283.167,213.32z"/>
					<path fill="#FFFFFF" d="M296.201,198.935c0-0.29,0.097-0.386,0.386-0.386h3.668c0.29,0,0.386,0.096,0.386,0.386v1.352
						c1.255-1.255,2.8-2.124,4.538-2.124c2.22,0,3.476,0.772,4.538,2.317c1.642-1.545,3.379-2.317,5.6-2.317
						c3.766,0,5.6,2.414,5.6,6.469v11.972c0,0.289-0.097,0.386-0.386,0.386h-3.669c-0.29,0-0.386-0.097-0.386-0.386v-11.296
						c0-2.414-0.772-3.09-2.317-3.09c-2.221,0-3.476,2.221-3.476,6.275v8.207c0,0.289-0.097,0.386-0.387,0.386h-3.668
						c-0.29,0-0.387-0.097-0.387-0.386v-11.103c0-2.511-0.772-3.283-2.414-3.283c-1.931,0-3.379,1.931-3.379,6.275v8.207
						c0,0.289-0.097,0.386-0.386,0.386h-3.669c-0.29,0-0.386-0.097-0.386-0.386v-17.861H296.201z"/>
					<path fill="#FFFFFF" d="M338.005,211.1c0.193-0.29,0.289-0.29,0.482-0.29h3.766c0.193,0,0.289,0.097,0.289,0.29
						c0,0.097,0,0.192-0.097,0.386c-1.544,4.055-4.537,5.89-8.979,5.89c-5.31,0-9.364-3.862-9.364-9.559s4.248-9.558,9.461-9.558
						c5.986,0,9.462,4.634,9.462,9.944v0.579c0,0.29-0.097,0.386-0.387,0.386h-13.902c0.386,2.414,2.124,4.248,4.827,4.248
						C335.688,213.32,337.136,212.644,338.005,211.1z M328.833,205.5h9.461c-0.676-1.932-2.22-3.38-4.827-3.38
						C331.439,202.121,329.605,203.376,328.833,205.5z"/>
					<path fill="#FFFFFF" d="M359.148,202.797c0,0.192-0.097,0.386-0.29,0.386c0,0-0.097,0-0.289-0.097
						c-1.545-0.772-2.607-1.062-3.766-1.062c-2.317,0-3.958,1.062-3.958,4.924v9.461c0,0.29-0.097,0.387-0.387,0.387h-3.669
						c-0.289,0-0.386-0.097-0.386-0.387v-17.475c0-0.29,0.097-0.386,0.386-0.386h3.669c0.29,0,0.387,0.096,0.387,0.386v0.966
						c1.062-1.063,2.606-1.738,4.537-1.738c1.255,0,2.317,0.193,3.379,0.579c0.387,0.193,0.483,0.29,0.483,0.676v3.38H359.148z"/>
					<path fill="#FFFFFF" d="M393.519,207.72c0.289,0,0.386,0.097,0.386,0.387c-0.676,5.696-5.406,9.172-11.488,9.172
						c-5.793,0-11.972-3.959-11.972-13.227c0-9.269,6.179-13.227,11.972-13.227c5.985,0,10.716,3.476,11.488,9.172
						c0,0.289-0.097,0.386-0.386,0.386h-3.669c-0.193,0-0.387-0.097-0.482-0.386c-1.063-3.572-3.669-4.924-6.951-4.924
						c-3.477,0-7.145,2.896-7.145,8.979c0,6.082,3.668,8.979,7.145,8.979c3.282,0,5.889-1.352,6.951-4.924
						c0.096-0.29,0.192-0.387,0.482-0.387H393.519z"/>
					<path fill="#FFFFFF" d="M406.069,198.163c5.6,0,9.848,3.958,9.848,9.558s-4.248,9.559-9.848,9.559s-9.848-3.959-9.848-9.559
						C396.318,202.217,400.47,198.163,406.069,198.163z M406.069,213.32c2.993,0,5.116-2.22,5.116-5.6c0-3.379-2.124-5.6-5.116-5.6
						c-2.993,0-5.117,2.221-5.117,5.6C400.952,211.1,403.076,213.32,406.069,213.32z"/>
					<path fill="#FFFFFF" d="M419.393,198.935c0-0.29,0.097-0.386,0.386-0.386h3.669c0.289,0,0.386,0.096,0.386,0.386v1.352
						c1.545-1.255,3.187-2.027,5.504-2.027c3.958,0,6.371,2.414,6.371,6.179v12.165c0,0.289-0.096,0.386-0.386,0.386h-3.669
						c-0.289,0-0.386-0.097-0.386-0.386v-10.62c0-2.703-1.159-3.766-3.187-3.766c-2.316,0-4.44,1.738-4.44,6.083v8.303
						c0,0.289-0.097,0.386-0.387,0.386h-3.668c-0.29,0-0.387-0.097-0.387-0.386v-17.668H419.393z"/>
					<path fill="#FFFFFF" d="M445.846,202.507v14.096c0,0.289-0.097,0.386-0.386,0.386h-3.669c-0.29,0-0.387-0.097-0.387-0.386
						v-14.096h-2.896c-0.289,0-0.386-0.097-0.386-0.387v-3.186c0-0.29,0.097-0.386,0.386-0.386h2.896v-1.545
						c0-3.766,2.317-6.083,5.986-6.083c1.255,0,2.703,0.29,3.765,0.772c0.29,0.097,0.29,0.29,0.29,0.58v3.186
						c0,0.193-0.097,0.29-0.193,0.29s-0.097,0-0.289-0.097c-1.159-0.579-2.124-0.772-2.993-0.772c-1.448,0-2.221,0.772-2.221,2.413
						v1.256h5.021c0.29,0,0.386,0.096,0.386,0.386v3.186c0,0.29-0.096,0.387-0.386,0.387H445.846z"/>
					<path fill="#FFFFFF" d="M466.507,211.1c0.192-0.29,0.289-0.29,0.482-0.29h3.765c0.193,0,0.29,0.097,0.29,0.29
						c0,0.097,0,0.192-0.097,0.386c-1.545,4.055-4.537,5.89-8.979,5.89c-5.31,0-9.365-3.862-9.365-9.559s4.248-9.558,9.462-9.558
						c5.985,0,9.461,4.634,9.461,9.944v0.579c0,0.29-0.097,0.386-0.386,0.386h-13.902c0.386,2.414,2.124,4.248,4.827,4.248
						C464.093,213.32,465.541,212.644,466.507,211.1z M457.335,205.5h9.461c-0.676-1.932-2.221-3.38-4.827-3.38
						C459.941,202.121,458.011,203.376,457.335,205.5z"/>
					<path fill="#FFFFFF" d="M487.553,202.797c0,0.192-0.096,0.386-0.289,0.386c0,0-0.097,0-0.29-0.097
						c-1.544-0.772-2.606-1.062-3.765-1.062c-2.317,0-3.959,1.062-3.959,4.924v9.461c0,0.29-0.096,0.387-0.386,0.387h-3.669
						c-0.289,0-0.386-0.097-0.386-0.387v-17.475c0-0.29,0.097-0.386,0.386-0.386h3.669c0.29,0,0.386,0.096,0.386,0.386v0.966
						c1.063-1.063,2.607-1.738,4.538-1.738c1.255,0,2.317,0.193,3.379,0.579c0.387,0.193,0.482,0.29,0.482,0.676v3.38H487.553z"/>
					<path fill="#FFFFFF" d="M503.097,211.1c0.193-0.29,0.29-0.29,0.483-0.29h3.765c0.193,0,0.29,0.097,0.29,0.29
						c0,0.097,0,0.192-0.097,0.386c-1.545,4.055-4.538,5.89-8.979,5.89c-5.311,0-9.365-3.862-9.365-9.559s4.248-9.558,9.462-9.558
						c5.985,0,9.461,4.634,9.461,9.944v0.579c0,0.29-0.097,0.386-0.386,0.386h-13.902c0.386,2.414,2.124,4.248,4.827,4.248
						C500.78,213.32,502.132,212.644,503.097,211.1z M493.925,205.5h9.462c-0.676-1.932-2.221-3.38-4.827-3.38
						C496.532,202.121,494.697,203.376,493.925,205.5z"/>
					<path fill="#FFFFFF" d="M511.593,198.935c0-0.29,0.097-0.386,0.387-0.386h3.669c0.289,0,0.386,0.096,0.386,0.386v1.352
						c1.545-1.255,3.186-2.027,5.503-2.027c3.958,0,6.372,2.414,6.372,6.179v12.165c0,0.289-0.097,0.386-0.386,0.386h-3.669
						c-0.29,0-0.387-0.097-0.387-0.386v-10.62c0-2.703-1.158-3.766-3.186-3.766c-2.317,0-4.441,1.738-4.441,6.083v8.303
						c0,0.289-0.097,0.386-0.386,0.386h-3.669c-0.29,0-0.386-0.097-0.386-0.386v-17.668H511.593z"/>
					<path fill="#FFFFFF" d="M535.633,207.72c0,3.572,2.027,5.601,4.924,5.601c2.124,0,3.669-0.966,4.345-2.896
						c0.097-0.29,0.289-0.29,0.482-0.29h3.572c0.193,0,0.29,0.097,0.29,0.193s0,0.193,0,0.386c-0.58,3.476-3.766,6.565-8.593,6.565
						c-5.407,0-9.559-3.766-9.559-9.559c0-5.792,4.151-9.558,9.559-9.558c4.827,0,8.013,2.993,8.593,6.565c0,0.193,0,0.289,0,0.386
						c0,0.193-0.097,0.193-0.29,0.193h-3.572c-0.29,0-0.386,0-0.482-0.29c-0.676-1.834-2.317-2.896-4.345-2.896
						C537.563,202.121,535.633,204.149,535.633,207.72z"/>
					<path fill="#FFFFFF" d="M565.658,211.1c0.193-0.29,0.29-0.29,0.482-0.29h3.766c0.193,0,0.29,0.097,0.29,0.29
						c0,0.097,0,0.192-0.097,0.386c-1.545,4.055-4.538,5.89-8.979,5.89c-5.311,0-9.365-3.862-9.365-9.559s4.248-9.558,9.461-9.558
						c5.986,0,9.462,4.634,9.462,9.944v0.579c0,0.29-0.097,0.386-0.386,0.386H556.39c0.387,2.414,2.124,4.248,4.827,4.248
						C563.341,213.32,564.693,212.644,565.658,211.1z M556.486,205.5h9.462c-0.676-1.932-2.221-3.38-4.827-3.38
						C559.093,202.121,557.259,203.376,556.486,205.5z"/>
				</g>
				<g>
					<path fill="#FFFFFF" d="M126.377,259.179c0-0.386,0.193-0.579,0.386-0.869l10.331-10.04c1.931-1.835,2.317-3.572,2.317-5.793
						c0-2.606-1.834-4.634-4.924-4.634c-3.379,0-5.117,2.316-5.117,4.924c0,0.482-0.193,0.579-0.483,0.579h-2.124
						c-0.29,0-0.482-0.193-0.482-0.579c0.096-4.345,3.089-7.82,8.11-7.82c4.827,0,7.917,3.186,7.917,7.434
						c0,3.379-1.159,5.696-3.283,7.724l-8.399,8.014h12.261c0.29,0,0.386,0.096,0.386,0.386v2.124c0,0.29-0.096,0.386-0.386,0.386
						h-16.123c-0.29,0-0.386-0.096-0.386-0.386V259.179L126.377,259.179z"/>
					<path fill="#FFFFFF" d="M148.293,259.179c0-0.386,0.193-0.579,0.386-0.869l10.33-10.04c1.931-1.835,2.317-3.572,2.317-5.793
						c0-2.606-1.834-4.634-4.924-4.634c-3.379,0-5.117,2.316-5.117,4.924c0,0.482-0.193,0.579-0.482,0.579h-2.124
						c-0.29,0-0.483-0.193-0.483-0.579c0.097-4.345,3.089-7.82,8.11-7.82c4.827,0,7.917,3.186,7.917,7.434
						c0,3.379-1.158,5.696-3.282,7.724l-8.399,8.014h12.068c0.29,0,0.386,0.096,0.386,0.386v2.124c0,0.29-0.096,0.386-0.386,0.386
						h-15.93c-0.29,0-0.386-0.096-0.386-0.386V259.179z"/>
					<path fill="#FFFFFF" d="M170.209,243.056c0-0.289,0.097-0.386,0.386-0.386h2.124c0.29,0,0.386,0.097,0.386,0.386v2.124
						c1.448-1.737,3.476-2.8,6.083-2.8c3.862,0,6.372,2.414,6.372,6.662v11.682c0,0.289-0.097,0.386-0.386,0.386h-2.124
						c-0.29,0-0.386-0.097-0.386-0.386v-11.296c0-2.993-1.545-4.345-4.151-4.345c-3.089,0-5.407,2.221-5.407,6.662v8.979
						c0,0.289-0.097,0.386-0.386,0.386h-2.124c-0.29,0-0.386-0.097-0.386-0.386V243.056L170.209,243.056z"/>
					<path fill="#FFFFFF" d="M206.896,260.724c0,0.289-0.097,0.386-0.386,0.386h-2.124c-0.29,0-0.386-0.097-0.386-0.386v-1.738
						c-1.352,1.448-3.476,2.414-5.986,2.414c-4.924,0-8.206-3.862-8.206-9.558c0-5.696,3.282-9.559,8.206-9.559
						c2.51,0,4.538,1.063,5.986,2.511v-8.979c0-0.289,0.097-0.386,0.386-0.386h2.124c0.29,0,0.386,0.097,0.386,0.386V260.724z
						 M198.497,244.987c-3.766,0-5.696,2.8-5.696,6.855c0,4.055,1.931,6.854,5.696,6.854c3.572,0,5.792-2.8,5.792-6.854
						C204.29,247.787,202.069,244.987,198.497,244.987z"/>
					<path fill="#FFFFFF" d="M235.57,247.111c0.29,0,0.386,0.097,0.386,0.387v2.124c0,0.289-0.097,0.386-0.386,0.386h-13.323
						c-0.29,0-0.386-0.097-0.386-0.386v-2.124c0-0.29,0.097-0.387,0.386-0.387H235.57z"/>
					<path fill="#FFFFFF" d="M250.535,259.179c0-0.386,0.193-0.579,0.386-0.869l10.331-10.04c1.931-1.835,2.317-3.572,2.317-5.793
						c0-2.606-1.834-4.634-4.924-4.634c-3.379,0-5.117,2.316-5.117,4.924c0,0.482-0.193,0.579-0.483,0.579h-2.027
						c-0.29,0-0.483-0.193-0.483-0.579c0.097-4.345,3.089-7.82,8.11-7.82c4.827,0,7.917,3.186,7.917,7.434
						c0,3.379-1.159,5.696-3.283,7.724l-8.399,8.014h12.068c0.29,0,0.386,0.096,0.386,0.386v2.124c0,0.29-0.096,0.386-0.386,0.386
						h-16.123c-0.29,0-0.386-0.096-0.386-0.386v-1.448H250.535z"/>
					<path fill="#FFFFFF" d="M282.877,255.8h-11.199c-0.29,0-0.386-0.097-0.386-0.387v-1.352c0-0.386,0.097-0.579,0.29-0.868
						l11.682-17.475c0.097-0.193,0.29-0.29,0.482-0.29h1.738c0.29,0,0.386,0.097,0.386,0.386v17.089h3.669
						c0.29,0,0.386,0.097,0.386,0.387v2.123c0,0.29-0.097,0.387-0.386,0.387h-3.669v4.924c0,0.289-0.096,0.386-0.386,0.386h-2.221
						c-0.29,0-0.386-0.097-0.386-0.386V255.8z M275.057,252.904h7.82v-11.585L275.057,252.904z"/>
					<path fill="#FFFFFF" d="M305.276,242.67c0.29,0,0.386,0.097,0.386,0.386v1.931c0,0.29-0.097,0.387-0.386,0.387h-6.083v10.233
						c0,2.027,0.966,3.09,2.896,3.09c1.255,0,2.124-0.097,3.476-0.579c0.097,0,0.193-0.097,0.29-0.097
						c0.193,0,0.29,0.192,0.29,0.386v1.738c0,0.289,0,0.482-0.29,0.579c-1.062,0.386-2.414,0.579-3.958,0.579
						c-3.476,0-5.503-2.124-5.503-5.6v-10.427h-3.282c-0.29,0-0.386-0.097-0.386-0.387v-1.931c0-0.289,0.097-0.386,0.386-0.386
						h3.282v-5.311c0-0.289,0.097-0.386,0.386-0.386h2.124c0.29,0,0.386,0.097,0.386,0.386v5.311h5.986V242.67z"/>
					<path fill="#FFFFFF" d="M309.91,235.815c0-0.289,0.097-0.386,0.386-0.386h2.124c0.29,0,0.387,0.097,0.387,0.386v9.559
						c1.545-1.835,4.055-3.09,6.469-3.09c3.861,0,6.371,2.221,6.371,6.372v12.068c0,0.289-0.096,0.386-0.386,0.386h-2.124
						c-0.289,0-0.386-0.097-0.386-0.386v-11.296c0-2.896-1.545-4.345-4.248-4.345c-2.896,0-5.696,2.414-5.696,6.565v9.075
						c0,0.289-0.097,0.386-0.387,0.386h-2.124c-0.289,0-0.386-0.097-0.386-0.386V235.815L309.91,235.815z"/>
					<path fill="#FFFFFF" d="M363.976,260.724c0,0.289-0.097,0.386-0.387,0.386h-2.316c-0.29,0-0.387-0.097-0.387-0.386v-20.468
						l-7.145,16.22c-0.096,0.193-0.289,0.29-0.482,0.29h-1.642c-0.192,0-0.386-0.193-0.482-0.29l-7.145-16.22v20.468
						c0,0.289-0.097,0.386-0.386,0.386h-2.317c-0.289,0-0.386-0.097-0.386-0.386v-24.909c0-0.289,0.097-0.386,0.386-0.386h3.476
						c0.29,0,0.483,0.097,0.579,0.386l7.145,16.316l7.145-16.316c0.097-0.289,0.29-0.386,0.579-0.386h3.476
						c0.29,0,0.387,0.097,0.387,0.386v24.909H363.976z"/>
					<path fill="#FFFFFF" d="M369.479,248.173c-0.193,0-0.29-0.097-0.29-0.193s0-0.193,0-0.386c0.772-2.8,3.09-5.214,7.435-5.214
						c4.248,0,7.24,2.606,7.24,6.372v8.785c0,1.738,0.193,2.317,0.58,3.187c0,0.097,0.096,0.097,0.096,0.193
						c0,0.192-0.096,0.192-0.289,0.192h-2.896c-0.289,0-0.386-0.097-0.386-0.386v-1.931c-1.159,1.641-3.38,2.606-5.986,2.606
						c-3.186,0-6.564-1.931-6.564-5.793c0-4.055,3.282-6.082,7.434-6.082c1.834,0,3.669,0.386,5.117,0.772v-1.063
						c0-2.703-1.642-4.248-4.441-4.248c-2.124,0-3.669,1.063-4.345,2.8c-0.097,0.29-0.289,0.29-0.482,0.29h-2.221V248.173z
						 M376.044,252.228c-2.607,0-4.635,0.966-4.635,3.186c0,2.124,1.448,3.283,3.959,3.283c3.089,0,5.695-2.027,5.695-5.696
						C379.52,252.518,377.975,252.228,376.044,252.228z"/>
					<path fill="#FFFFFF" d="M389.85,243.056l5.406,13.999l4.635-13.999c0.096-0.289,0.192-0.386,0.482-0.386h2.51
						c0.193,0,0.29,0.097,0.29,0.289c0,0.097,0,0.193,0,0.29l-6.662,19.695c-1.544,4.537-3.572,5.793-6.372,5.793
						c-1.255,0-1.931-0.193-2.703-0.58c-0.289-0.192-0.386-0.386-0.386-0.579v-1.931c0-0.29,0.193-0.387,0.289-0.387
						c0.58,0,0.966,0.772,2.607,0.772c1.931,0,2.992-1.448,3.861-4.634l-7.337-18.054c0-0.097-0.097-0.193-0.097-0.29
						c0-0.193,0.097-0.289,0.289-0.289h2.607C389.656,242.67,389.753,242.767,389.85,243.056z"/>
					<path fill="#FFFFFF" d="M416.014,259.179c0-0.386,0.192-0.579,0.386-0.869l10.33-10.04c1.932-1.835,2.317-3.572,2.317-5.793
						c0-2.606-1.834-4.634-4.924-4.634c-3.379,0-5.117,2.316-5.117,4.924c0,0.482-0.192,0.579-0.482,0.579h-2.124
						c-0.29,0-0.482-0.193-0.482-0.579c0.097-4.345,3.089-7.82,8.109-7.82c4.827,0,7.917,3.186,7.917,7.434
						c0,3.379-1.159,5.696-3.282,7.724l-8.399,8.014h12.261c0.29,0,0.386,0.096,0.386,0.386v2.124c0,0.29-0.096,0.386-0.386,0.386
						h-16.123c-0.29,0-0.386-0.096-0.386-0.386V259.179z"/>
					<path fill="#FFFFFF" d="M446.521,235.043c5.31,0,9.654,4.344,9.654,13.227c0,8.882-4.345,13.227-9.654,13.227
						s-9.654-4.345-9.654-13.227C436.867,239.387,441.212,235.043,446.521,235.043z M446.521,258.6c3.669,0,6.565-2.703,6.565-10.33
						s-2.896-10.331-6.565-10.331s-6.565,2.704-6.565,10.331C439.86,255.897,442.756,258.6,446.521,258.6z"/>
					<path fill="#FFFFFF" d="M465.348,239.484l-4.924,2.703c-0.193,0.097-0.289,0.097-0.386,0.097c-0.193,0-0.29-0.097-0.29-0.289
						v-2.511c0-0.289,0.193-0.482,0.387-0.579l5.889-3.282c0.193-0.097,0.29-0.193,0.579-0.193h1.353
						c0.289,0,0.386,0.097,0.386,0.386v24.909c0,0.289-0.097,0.386-0.386,0.386h-2.317c-0.29,0-0.387-0.097-0.387-0.386v-21.24
						H465.348z"/>
					<path fill="#FFFFFF" d="M483.016,235.043c4.055,0,7.627,2.51,7.627,6.758c0,2.703-1.255,4.441-3.09,5.6
						c2.124,1.158,3.862,2.993,3.862,6.372c0,4.44-3.476,7.627-8.496,7.627s-8.496-3.187-8.496-7.627
						c0-3.379,1.738-5.214,3.862-6.372c-1.835-1.158-3.09-2.896-3.09-5.6C475.389,237.553,478.961,235.043,483.016,235.043z
						 M483.016,258.6c3.282,0,5.406-1.738,5.406-4.73c0-2.993-2.124-4.827-5.406-4.827s-5.406,1.834-5.406,4.827
						C477.609,256.862,479.733,258.6,483.016,258.6z M483.016,246.243c2.993,0,4.827-1.738,4.827-4.151
						c0-2.607-2.027-4.056-4.827-4.056c-2.703,0-4.827,1.545-4.827,4.056C478.285,244.408,480.022,246.243,483.016,246.243z"/>
				</g>
			</g>
			<g>
				<g>
					
						<line fill="none" stroke="#444444" stroke-width="4.6917" stroke-linecap="round" stroke-miterlimit="10" x1="602.731" y1="175.571" x2="602.731" y2="175.571"/>
					
						<line fill="none" stroke="#444444" stroke-width="4.6917" stroke-linecap="round" stroke-miterlimit="10" stroke-dasharray="0,9.3369" x1="594.235" y1="172.771" x2="359.245" y2="93.701"/>
					
						<line fill="none" stroke="#444444" stroke-width="4.6917" stroke-linecap="round" stroke-miterlimit="10" x1="354.997" y1="92.252" x2="354.997" y2="92.252"/>
				</g>
			</g>
		</g>
		
			<use xlink:href="#copter"  width="271.1" height="87.9" x="-135.55" y="-43.95" transform="matrix(1.0444 0 0 -1.0444 275.9712 45.9023)" overflow="visible"/>
	</g>
</g>
<g id="Layer_4">
</g>
</svg>
